<?xml version="1.0" encoding="UTF-8"?>
<svg version="1.1" xmlns="http://www.w3.org/2000/svg" width="32" height="32">
<path d="M0 0 C2.12304688 -0.37231445 2.12304688 -0.37231445 4.71875 -0.36328125 C5.65074219 -0.36263672 6.58273437 -0.36199219 7.54296875 -0.36132812 C8.51878906 -0.34521484 9.49460937 -0.32910156 10.5 -0.3125 C11.47582031 -0.31572266 12.45164062 -0.31894531 13.45703125 -0.32226562 C20.73308471 -0.26691529 20.73308471 -0.26691529 23 2 C23.69100553 3.99172182 24.35902703 5.99161804 25 8 C25.33 8.33 25.66 8.66 26 9 C26.97739874 18.54966638 26.97739874 18.54966638 24.0625 22.875 C23.381875 23.57625 22.70125 24.2775 22 25 C21.67 26.65 21.34 28.3 21 30 C14.73 30 8.46 30 2 30 C1.34 27.69 0.68 25.38 0 23 C-0.66 22.01 -1.32 21.02 -2 20 C-2.19543996 17.12588292 -2.27875966 14.37117283 -2.25 11.5 C-2.25773438 10.72785156 -2.26546875 9.95570312 -2.2734375 9.16015625 C-2.25993153 5.26368532 -2.20675169 3.31012753 0 0 Z M0 4 C-0.41692853 7.58399407 -0.41692853 7.58399407 0 11 C1.11126659 12.33901792 1.11126659 12.33901792 3.94140625 12.09765625 C5.13636719 12.08605469 6.33132813 12.07445312 7.5625 12.0625 C8.76003906 12.05347656 9.95757812 12.04445313 11.19140625 12.03515625 C12.58166016 12.01775391 12.58166016 12.01775391 14 12 C14.27585937 11.35546875 14.55171875 10.7109375 14.8359375 10.046875 C16 8 16 8 18.625 7.25 C19.800625 7.12625 19.800625 7.12625 21 7 C20.65555119 4.52733235 20.65555119 4.52733235 20 2 C17.06077067 0.53038534 14.39591028 0.79080138 11.125 0.75 C9.89007813 0.72421875 8.65515625 0.6984375 7.3828125 0.671875 C3.82692152 1.01678821 2.40094188 1.3905396 0 4 Z M17 9 C17 9.99 17 10.98 17 12 C18.98 12 20.96 12 23 12 C23 12.66 23 13.32 23 14 C21.576875 14.2165625 21.576875 14.2165625 20.125 14.4375 C17.1065506 14.82935399 17.1065506 14.82935399 15 16 C15 16.99 15 17.98 15 19 C14.34 19 13.68 19 13 19 C13.33 17.35 13.66 15.7 14 14 C9.38 14 4.76 14 0 14 C-0.55788432 19.54118196 -0.55788432 19.54118196 1.2421875 21.84790039 C4.52903225 24.00215322 8.18621571 23.47048084 12 23.4375 C13.22976562 23.4674707 13.22976562 23.4674707 14.484375 23.49804688 C19.16295291 23.57210587 19.16295291 23.57210587 23.046875 21.265625 C24.10408678 18.7525806 24.33982164 17.02960449 24.25 14.3125 C24.23453125 13.52488281 24.2190625 12.73726562 24.203125 11.92578125 C24.20349054 9.99381251 24.20349054 9.99381251 23 9 C21.00041636 8.95919217 18.99954746 8.95745644 17 9 Z M4 25 C4 26.32 4 27.64 4 29 C8.95 29 13.9 29 19 29 C19 27.68 19 26.36 19 25 C14.05 25 9.1 25 4 25 Z " fill="#F97214" transform="translate(4,1)"/>
</svg>
