<?xml version="1.0" encoding="UTF-8"?>
<svg version="1.1" xmlns="http://www.w3.org/2000/svg" width="512" height="512">
<path d="M0 0 C1.12795361 -0.00935994 1.12795361 -0.00935994 2.27869415 -0.01890898 C4.80004674 -0.03487215 7.32043701 -0.02222232 9.84179688 -0.00964355 C11.64868738 -0.01506322 13.45557347 -0.022185 15.26245117 -0.03088379 C20.17152718 -0.04913865 25.0802674 -0.04204069 29.98934937 -0.02936745 C35.12311722 -0.01925099 40.25685604 -0.02862936 45.390625 -0.03491211 C54.01242238 -0.04219246 62.63408278 -0.03259062 71.25585938 -0.0135498 C81.22843656 0.00821965 91.20068666 0.00116856 101.17325592 -0.02085543 C109.73046929 -0.03899836 118.2875841 -0.04157316 126.84481049 -0.03110075 C131.95787417 -0.02485974 137.07078404 -0.02404689 142.18383789 -0.0372467 C146.99052263 -0.04878848 151.79678503 -0.04081012 156.60342407 -0.01766968 C158.36910297 -0.01237363 160.13481731 -0.01391164 161.90048218 -0.02272034 C164.30783501 -0.03362444 166.71382798 -0.01997589 169.12109375 0 C169.82264839 -0.00892289 170.52420303 -0.01784577 171.24701691 -0.02703905 C174.27951311 0.0218933 176.34793658 0.38701955 178.99544907 1.89270401 C181.48416154 6.05126642 181.09699211 10.10244216 181.04156494 14.85955811 C181.04498264 15.92469942 181.04840034 16.98984073 181.05192161 18.08725905 C181.05852755 21.66818483 181.03647869 25.24836653 181.01464844 28.82922363 C181.01352055 31.39135724 181.01415267 33.95349214 181.01641846 36.515625 C181.0173303 42.03777844 181.00596088 47.55969085 180.9834671 53.08179474 C180.95096622 61.06578493 180.94054206 69.04968369 180.93551514 77.03373286 C180.92675947 89.9870993 180.90013655 102.94036501 180.86230469 115.89367676 C180.82559162 128.47700496 180.79727642 141.06030581 180.78027344 153.64367676 C180.77922254 154.41924471 180.77817165 155.19481267 180.77708891 155.99388269 C180.77186878 159.8846585 180.76681394 163.77543451 180.7618413 167.66621065 C180.72037079 199.9468585 180.64991501 232.22738256 180.56054688 264.50793457 C181.71755348 264.72138519 181.71755348 264.72138519 182.89793396 264.93914795 C185.88210771 265.5766263 188.23438427 266.64401301 190.97070312 267.99230957 C192.02781494 268.5083374 193.08492676 269.02436523 194.17407227 269.55603027 C195.31223389 270.11765869 196.45039551 270.67928711 197.62304688 271.25793457 C200.07969045 272.45803035 202.53874652 273.65313807 204.99804688 274.84777832 C205.62771866 275.15414719 206.25739044 275.46051605 206.90614319 275.77616882 C213.27570282 278.86894213 219.69435201 281.85273892 226.12304688 284.82043457 C236.49554147 289.61542522 246.84808293 294.45040056 257.18554688 299.32043457 C257.89480316 299.65448303 258.60405945 299.98853149 259.33480835 300.33270264 C265.13974829 303.06686526 270.9438011 305.80290881 276.74780273 308.5390625 C281.80996988 310.92539964 286.87249626 313.3109724 291.93554688 315.69543457 C293.0021051 316.19777618 293.0021051 316.19777618 294.09020996 316.71026611 C303.52465225 321.15260907 312.97238404 325.56454361 322.43554688 329.94543457 C333.90343866 335.25439779 345.33399456 340.63966984 356.75726318 346.04379272 C367.0115258 350.89448952 377.27644934 355.72082061 387.56054688 360.50793457 C395.53112589 364.21813567 403.49459314 367.94259327 411.44335938 371.69934082 C412.58084122 372.23680435 412.58084122 372.23680435 413.74130249 372.78512573 C417.58303473 374.6011592 421.42320141 376.42041568 425.26123047 378.2442627 C432.38179337 381.62332605 439.51483743 384.95791956 446.71679688 388.16027832 C447.99543895 388.73406149 449.27392589 389.30819052 450.55224609 389.88269043 C452.88020868 390.92403212 455.21470051 391.95096993 457.55712891 392.95935059 C468.66332372 397.9508892 477.46536807 405.25034356 482.56054688 416.50793457 C484.68437603 422.52479288 484.88219146 428.06082867 484.89648438 434.41027832 C484.90314117 435.44681046 484.90979797 436.48334259 484.91665649 437.55128479 C484.92674679 439.7356286 484.93147464 441.92000302 484.93115234 444.10437012 C484.93552851 447.43146835 484.97189608 450.75724221 485.00976562 454.08410645 C485.01563407 456.21365923 485.01960328 458.34321828 485.02148438 460.47277832 C485.03585541 461.45947006 485.05022644 462.4461618 485.06503296 463.4627533 C485.01682805 470.80950532 483.48330421 476.17262103 478.59570312 481.75012207 C477.94472656 482.2889502 477.29375 482.82777832 476.62304688 483.38293457 C475.97464844 483.93723145 475.32625 484.49152832 474.65820312 485.06262207 C469.76621422 488.4332662 465.27606601 488.79445363 459.46458721 488.75403023 C458.650087 488.75633792 457.83558678 488.7586456 456.99640474 488.76102322 C454.25571549 488.76633459 451.51525925 488.75732966 448.77458191 488.7484436 C446.7944867 488.74931544 444.81439171 488.75106601 442.83429796 488.75362194 C437.38421144 488.75810383 431.93420322 488.7500802 426.48412669 488.74006581 C420.61026739 488.73144574 414.73641267 488.73435045 408.86254883 488.73587036 C398.68270506 488.73692013 388.50288688 488.73063395 378.32304955 488.71939468 C367.64569223 488.70761378 356.9683436 488.69986335 346.29097939 488.69768906 C345.62726298 488.69755158 344.96354657 488.6974141 344.27971754 488.69727245 C340.90908083 488.69659579 337.53844411 488.69599302 334.16780738 488.6954187 C310.28935487 488.69121712 286.4109157 488.67774027 262.5324707 488.65881348 C239.33390372 488.64044679 216.13534038 488.62627849 192.93676758 488.61779785 C192.22177243 488.6175348 191.50677728 488.61727175 190.77011561 488.61700072 C183.58988517 488.6143637 176.4096547 488.61181207 169.22942421 488.609323 C154.60227484 488.60425048 139.97512571 488.59860798 125.34797668 488.59262085 C124.33916257 488.59220898 124.33916257 488.59220898 123.30996837 488.59178879 C78.39348894 488.57338534 33.47701711 488.54165311 -11.43945312 488.50793457 C-11.50790546 442.42133942 -11.57159066 396.3347398 -11.60882568 350.24810791 C-11.60965403 349.2254668 -11.60965403 349.2254668 -11.6104991 348.18216627 C-11.62246987 333.3667705 -11.63355072 318.55137419 -11.64371444 303.73597707 C-11.64870392 296.47083518 -11.65389012 289.20569344 -11.65917969 281.94055176 C-11.65970272 281.21757093 -11.66022576 280.4945901 -11.66076465 279.74970077 C-11.67781944 256.30276352 -11.70787167 232.85586475 -11.74464201 209.40895082 C-11.78235008 185.32041043 -11.80698971 161.23189135 -11.81511309 137.14332194 C-11.81626576 133.74339286 -11.81756831 130.34346384 -11.8189621 126.94353485 C-11.81923179 126.27435971 -11.81950148 125.60518457 -11.81977935 124.91573139 C-11.82451191 114.13042618 -11.84307942 103.34518672 -11.86678126 92.55990836 C-11.89029796 81.72517789 -11.89900862 70.89051592 -11.89345863 60.05576113 C-11.89088711 54.18191685 -11.89493246 48.30826607 -11.91627502 42.43445587 C-11.93565068 37.06298229 -11.93678184 31.69183348 -11.9230487 26.32034537 C-11.92134983 24.3714246 -11.92649983 22.42248408 -11.93898585 20.47360256 C-11.95491549 17.83497599 -11.94646354 15.19753948 -11.93164444 12.55893326 C-11.94215249 11.79293812 -11.95266055 11.02694298 -11.96348703 10.23773587 C-11.91933983 6.78635902 -11.69128311 4.8497365 -9.61835456 2.03620744 C-6.51712214 -0.13898474 -3.65301297 -0.0464617 0 0 Z " fill="#4A89DC" transform="translate(19.439453125,11.4920654296875)"/>
<path d="M0 0 C2.21711921 -0.00965984 4.43423656 -0.01975366 6.65135193 -0.03025818 C11.27827386 -0.04813272 15.90502845 -0.05378773 20.53198242 -0.05200195 C26.43519332 -0.05169657 32.33732593 -0.09274807 38.24028111 -0.14431858 C42.81219844 -0.17780101 47.38385759 -0.18375602 51.95588493 -0.18217278 C54.13142572 -0.18569105 56.30697476 -0.19883686 58.48239326 -0.22216988 C74.30317191 -0.37607258 85.13020527 0.94869359 97.0859375 12.296875 C105.24615068 21.42661846 107.36777255 30.51902945 107.39453125 42.40625 C107.40118805 43.44278214 107.40784485 44.47931427 107.41470337 45.54725647 C107.42479367 47.73160028 107.42952152 49.9159747 107.42919922 52.1003418 C107.43357538 55.42744003 107.46994295 58.75321389 107.5078125 62.08007812 C107.51368094 64.20963091 107.51765015 66.33918996 107.51953125 68.46875 C107.53390228 69.45544174 107.54827332 70.44213348 107.56307983 71.45872498 C107.51487492 78.805477 105.98135109 84.16859271 101.09375 89.74609375 C100.44277344 90.28492188 99.79179687 90.82375 99.12109375 91.37890625 C98.47269531 91.93320312 97.82429688 92.4875 97.15625 93.05859375 C92.26426109 96.42923788 87.77411288 96.79042531 81.96263409 96.75000191 C80.74088376 96.75346344 80.74088376 96.75346344 79.49445161 96.7569949 C76.75376236 96.76230627 74.01330612 96.75330134 71.27262878 96.74441528 C69.29253357 96.74528712 67.31243858 96.74703769 65.33234483 96.74959362 C59.88225832 96.75407551 54.43225009 96.74605188 48.98217356 96.73603749 C43.10831427 96.72741742 37.23445954 96.73032213 31.3605957 96.73184204 C21.18075193 96.73289181 11.00093375 96.72660563 0.82109642 96.71536636 C-9.85626089 96.70358546 -20.53360952 96.69583503 -31.21097374 96.69366074 C-31.87469015 96.69352326 -32.53840656 96.69338578 -33.22223559 96.69324413 C-36.5928723 96.69256747 -39.96350902 96.6919647 -43.33414575 96.69139038 C-67.21259825 96.6871888 -91.09103743 96.67371195 -114.96948242 96.65478516 C-138.16804941 96.63641847 -161.36661275 96.62225017 -184.56518555 96.61376953 C-185.2801807 96.61350648 -185.99517585 96.61324343 -186.73183752 96.6129724 C-193.91206796 96.61033538 -201.09229842 96.60778375 -208.27252891 96.60529468 C-222.89967828 96.60022216 -237.52682742 96.59457966 -252.15397644 96.58859253 C-253.16279056 96.58818066 -253.16279056 96.58818066 -254.19198476 96.58776047 C-299.10846424 96.56935702 -344.02493589 96.53751275 -388.94140625 96.50390625 C-388.94140625 88.58390625 -388.94140625 80.66390625 -388.94140625 72.50390625 C-288.62140625 72.50390625 -188.30140625 72.50390625 -84.94140625 72.50390625 C-84.94140625 69.53390625 -84.94140625 66.56390625 -84.94140625 63.50390625 C-83.33645645 49.04263986 -76.72127743 35.2429972 -66.94140625 24.50390625 C-66.26464844 23.74722656 -65.58789062 22.99054688 -64.890625 22.2109375 C-46.84391607 3.07437403 -24.90150205 0.02563876 0 0 Z " fill="#5C9CEB" transform="translate(396.94140625,403.49609375)"/>
<path d="M0 0 C0.9238298 -0.00983414 1.84765961 -0.01966827 2.79948425 -0.02980042 C3.80582916 -0.02013245 4.81217407 -0.01046448 5.84901428 -0.00050354 C7.44718239 -0.00860802 7.44718239 -0.00860802 9.07763672 -0.01687622 C12.60335478 -0.02939428 16.12826113 -0.0128501 19.65394592 0.00511169 C22.10247846 0.00495677 24.55101125 0.00346884 26.99954224 0.0007019 C32.13339568 -0.00068352 37.26697025 0.01189942 42.40077209 0.03465271 C48.98283694 0.06302236 55.56443773 0.06030578 62.14653683 0.0475626 C67.20371465 0.04060829 72.26078517 0.04839221 77.3179493 0.06081963 C79.74484915 0.06533756 82.17176052 0.06566795 84.59866142 0.06175423 C87.99094635 0.05884492 91.38259143 0.07533712 94.77479553 0.09715271 C95.77911621 0.09265106 96.78343689 0.08814941 97.81819153 0.08351135 C106.42696911 0.17552755 106.42696911 0.17552755 110.37660217 3.50120544 C117.13325217 17.01450544 109.45102262 42.41236973 105.21742249 56.03977966 C94.69196044 86.85212239 71.51862752 110.78838577 42.87782288 125.43113708 C26.99022333 133.16214696 8.95105099 136.57709897 -8.62339783 136.50120544 C-8.71681092 119.35966446 -8.78736207 102.21820283 -8.83064651 85.07646561 C-8.85127783 77.1173731 -8.87940911 69.15843868 -8.92515564 61.19944763 C-8.96500621 54.26293386 -8.99082651 47.32653457 -8.99975181 40.38990951 C-9.00496965 36.71645802 -9.01724473 33.04333407 -9.04631805 29.36998749 C-9.07850003 25.27067494 -9.0793584 21.17193293 -9.07749939 17.07249451 C-9.09188049 15.85257813 -9.1062616 14.63266174 -9.12107849 13.3757782 C-9.11557983 12.25961121 -9.11008118 11.14344421 -9.10441589 9.99345398 C-9.10810307 9.02372776 -9.11179024 8.05400154 -9.11558914 7.05488968 C-8.12960797 1.93922735 -4.99335932 0.00130466 0 0 Z " fill="#5C9BEB" transform="translate(16.623397827148438,11.498794555664063)"/>
<path d="M0 0 C163.68 0 327.36 0 496 0 C496 7.60020443 495.28931307 11.49780863 490.12890625 16.9921875 C483.98404282 22.59109898 479.25226942 24.30416415 470.90404034 24.24609566 C470.08954012 24.24840335 469.2750399 24.25071103 468.43585786 24.25308865 C465.69516861 24.25840002 462.95471237 24.24939509 460.21403503 24.24050903 C458.23393982 24.24138087 456.25384483 24.24313144 454.27375108 24.24568737 C448.82366457 24.25016926 443.37365634 24.24214563 437.92357981 24.23213124 C432.04972052 24.22351117 426.17586579 24.22641588 420.30200195 24.22793579 C410.12215818 24.22898556 399.94234 24.22269938 389.76250267 24.21146011 C379.08514536 24.19967921 368.40779673 24.19192878 357.73043251 24.18975449 C357.0667161 24.18961701 356.40299969 24.18947953 355.71917066 24.18933788 C352.34853395 24.18866122 348.97789723 24.18805845 345.6072605 24.18748413 C321.728808 24.18328255 297.85036882 24.1698057 273.97192383 24.15087891 C250.77335684 24.13251222 227.5747935 24.11834392 204.3762207 24.10986328 C203.66122555 24.10960023 202.9462304 24.10933718 202.20956873 24.10906615 C195.02933829 24.10642913 187.84910783 24.1038775 180.66887734 24.10138843 C166.04172797 24.09631591 151.41457883 24.09067341 136.78742981 24.08468628 C135.77861569 24.08427441 135.77861569 24.08427441 134.74942149 24.08385422 C89.83294201 24.06545077 44.91647036 24.0336065 0 24 C0 16.08 0 8.16 0 0 Z " fill="#E6E9ED" transform="translate(8,476)"/>
<path d="M0 0 C5.90815343 -0.09890033 11.81582472 -0.17148371 17.72460938 -0.21972656 C19.73446038 -0.23983805 21.74425291 -0.26713115 23.75390625 -0.30175781 C26.64337596 -0.35029634 29.53207191 -0.37297322 32.421875 -0.390625 C33.31992859 -0.41127014 34.21798218 -0.43191528 35.14324951 -0.45318604 C35.98381897 -0.45348816 36.82438843 -0.45379028 37.69042969 -0.45410156 C38.79629425 -0.46742523 38.79629425 -0.46742523 39.92449951 -0.48101807 C43.12157846 0.25993706 44.05701371 1.32436679 46 4 C46.60610939 7.44446943 46.5216724 10.86240697 46.48101807 14.35162354 C46.48443577 15.41676485 46.48785347 16.48190616 46.49137473 17.57932448 C46.49798068 21.16025026 46.47593181 24.74043196 46.45410156 28.32128906 C46.45297368 30.88342267 46.45360579 33.44555757 46.45587158 36.00769043 C46.45678343 41.52984387 46.445414 47.05175628 46.42292023 52.57386017 C46.39041935 60.55785036 46.37999519 68.54174912 46.37496826 76.52579829 C46.36621259 89.47916473 46.33958967 102.43243044 46.30175781 115.38574219 C46.26504474 127.96907039 46.23672955 140.55237124 46.21972656 153.13574219 C46.21867567 153.91131014 46.21762477 154.6868781 46.21654204 155.48594812 C46.21132191 159.37672393 46.20626707 163.26749994 46.20129442 167.15827608 C46.15982392 199.43892393 46.08936813 231.71944799 46 264 C43.95462602 264.04427135 41.90896919 264.07557191 39.86328125 264.1015625 C38.15458862 264.12984131 38.15458862 264.12984131 36.41137695 264.15869141 C28.00894021 263.76782446 19.87407482 260.02831749 14 254 C7.68492282 245.49082029 5.69603799 237.76309529 5.73498535 227.37078857 C5.73060408 226.41954015 5.72622281 225.46829173 5.72170877 224.48821759 C5.70941779 221.3107817 5.71119489 218.13351155 5.71289062 214.95605469 C5.70686479 212.67420203 5.69994013 210.39235159 5.69218445 208.11050415 C5.67730853 203.20237324 5.6685496 198.29428293 5.66447449 193.38613129 C5.65776029 185.63036532 5.63600691 177.87468638 5.61193848 170.11895752 C5.57961062 159.25118731 5.55275174 148.38342265 5.53173828 137.515625 C5.53040329 136.82654781 5.5290683 136.13747063 5.52769285 135.42751232 C5.51691255 129.83437912 5.50648988 124.24124527 5.4960928 118.64811134 C5.48698029 113.75303745 5.47772858 108.85796385 5.46826172 103.96289062 C5.46693098 103.27344292 5.46560023 102.58399522 5.46422917 101.87365517 C5.44181644 90.3868195 5.411551 78.90002151 5.37586927 67.41321874 C5.35247474 59.69760126 5.33876849 51.98204457 5.33237457 44.26639509 C5.32645336 39.47637317 5.31237286 34.68640088 5.29603004 29.89640427 C5.29013428 27.66911078 5.28768589 25.44180521 5.28886986 23.21450424 C5.29002219 20.18332195 5.27906771 17.15242104 5.26501465 14.12127686 C5.26831362 13.23209021 5.2716126 12.34290357 5.27501154 11.42677188 C5.24928141 6.41616237 5.24928141 6.41616237 3 2 C2.01 1.34 1.02 0.68 0 0 Z " fill="#3679CE" transform="translate(154,12)"/>
<path d="M0 0 C15.19883637 0 15.19883637 0 22.3125 1.625 C23.11518311 1.80321289 23.91786621 1.98142578 24.74487305 2.16503906 C53.5106054 8.87600238 78.76063132 26.1828082 94.83886719 51.11132812 C102.7585361 63.99327907 108.0556841 77.88045536 110.8125 92.75 C110.93665283 93.41056396 111.06080566 94.07112793 111.1887207 94.75170898 C112.1776683 100.67882589 112 105.77453716 112 112 C75.04 112 38.08 112 0 112 C0 75.04 0 38.08 0 0 Z " fill="#5C9BEB" transform="translate(8,364)"/>
<path d="M0 0 C0.33 0 0.66 0 1 0 C1.07531413 6.20318072 1.12913969 12.40608346 1.16479492 18.60961914 C1.17969083 20.7109034 1.20001441 22.81215766 1.22631836 24.91333008 C1.67620327 61.8303566 -7.27895497 92.72145225 -33 120 C-33.66257812 120.73863281 -34.32515625 121.47726563 -35.0078125 122.23828125 C-51.7542667 140.16271797 -75.47969781 150.64990437 -99.3125 154.8125 C-100.01681152 154.93665283 -100.72112305 155.06080566 -101.44677734 155.1887207 C-107.46929851 156.13563602 -112.71273926 156 -119 156 C-119 140.16 -119 124.32 -119 108 C-107.615 106.515 -107.615 106.515 -96 105 C-70.50559474 99.44352706 -50.47912078 88.2089582 -32 70 C-31.28328125 69.29617187 -30.5665625 68.59234375 -29.828125 67.8671875 C-12.31331508 49.44160746 -3.71431968 24.66973519 0 0 Z " fill="#3679CE" transform="translate(127,40)"/>
<path d="M0 0 C0.33 0 0.66 0 1 0 C1.07515048 6.23980185 1.12906613 12.47933009 1.16479492 18.71948242 C1.17971722 20.83443806 1.20006237 22.94936368 1.22631836 25.06420898 C1.64903957 60.03402816 -7.31960258 91.66944097 -31.61328125 117.57421875 C-52.18288756 138.48047983 -78.38848732 152.44333589 -108 155 C-111.63 155 -115.26 155 -119 155 C-119 139.16 -119 123.32 -119 107 C-115.349375 106.5875 -111.69875 106.175 -107.9375 105.75 C-74.71722561 101.69406224 -45.40313526 87.27233205 -24.296875 60.6796875 C-10.71282543 42.78185383 -3.42302099 22.03945092 0 0 Z " fill="#5C9BEB" transform="translate(127,89)"/>
<path d="M0 0 C3.85025879 0.60355408 6.86101159 1.76772603 10.3125 3.5625 C11.19550781 4.01753906 12.07851563 4.47257812 12.98828125 4.94140625 C13.98408203 5.46541016 13.98408203 5.46541016 15 6 C13.5785521 10.59507662 11.75574045 14.88469009 9.625 19.1875 C9.33367187 19.80302734 9.04234375 20.41855469 8.7421875 21.05273438 C6.99197184 24.59538582 5.47058363 27.03264321 2 29 C-0.9375 29.5625 -0.9375 29.5625 -4 29 C-6.9375 26.375 -6.9375 26.375 -9 23 C-8.7577773 17.5096189 -6.31441429 12.96914312 -3.9375 8.125 C-3.37192383 6.949375 -3.37192383 6.949375 -2.79492188 5.75 C-1.87006766 3.83004947 -0.93596022 1.914561 0 0 Z " fill="#E0E5EC" transform="translate(353,348)"/>
<path d="M0 0 C5.22796512 1.65769643 10.14849504 3.38765118 15 6 C12.72874466 13.88259207 9.30715691 21.02551941 5 28 C1.90826248 29.54586876 -0.59429552 29.29359521 -4 29 C-6.4375 27.5 -6.4375 27.5 -8 25 C-8.65161025 18.26425363 -7.04816991 13.94187176 -4 8 C-3.6184375 7.22527344 -3.236875 6.45054687 -2.84375 5.65234375 C-1.9098683 3.7612333 -0.95687699 1.87957979 0 0 Z " fill="#E0E5EC" transform="translate(324,334)"/>
<path d="M0 0 C3.94949704 0.62816498 7.19892028 1.8645529 10.8125 3.5625 C11.78832031 4.01753906 12.76414062 4.47257812 13.76953125 4.94140625 C14.50558594 5.29074219 15.24164063 5.64007813 16 6 C14.6254662 9.09326272 13.22175506 12.17241923 11.8125 15.25 C11.42513672 16.12269531 11.03777344 16.99539063 10.63867188 17.89453125 C8.42799862 22.68127829 6.66447983 26.17655864 2 29 C-0.5 29.5625 -0.5 29.5625 -3 29 C-5.8125 26.9375 -5.8125 26.9375 -8 24 C-8.77682392 17.722635 -6.75979453 13.50283821 -4 8.0625 C-3.6184375 7.28326172 -3.236875 6.50402344 -2.84375 5.70117188 C-1.90807109 3.7947261 -0.9557085 1.89648406 0 0 Z " fill="#DFE5EC" transform="translate(266,307)"/>
<path d="M0 0 C4.18381827 0.52752491 7.24700519 1.41868489 10.875 3.5625 C11.65617187 4.01753906 12.43734375 4.47257812 13.2421875 4.94140625 C14.11230469 5.46541016 14.11230469 5.46541016 15 6 C13.57381962 10.62621697 11.71961539 14.9266095 9.5625 19.25 C9.26279297 19.87390625 8.96308594 20.4978125 8.65429688 21.140625 C7.03811265 24.39402839 6.08800382 25.94133079 3 28 C-0.87338754 28.42255137 -3.11598609 28.56667558 -6.4375 26.4375 C-8.62270587 23.02857884 -8.35876668 21.03108627 -8 17 C-6.91271288 13.89120843 -5.48849314 10.99674239 -4 8.0625 C-3.6184375 7.28326172 -3.236875 6.50402344 -2.84375 5.70117188 C-1.90807109 3.7947261 -0.9557085 1.89648406 0 0 Z " fill="#E0E6EC" transform="translate(295,321)"/>
<path d="M0 0 C3.95771091 0.54490223 7.26016892 1.3646248 10.875 3.0625 C11.65617187 3.42472656 12.43734375 3.78695313 13.2421875 4.16015625 C14.11230469 4.57587891 14.11230469 4.57587891 15 5 C14.36663667 9.88457477 12.31681869 13.84707051 10.125 18.1875 C9.59712891 19.27321289 9.59712891 19.27321289 9.05859375 20.38085938 C8.71183594 21.07373047 8.36507812 21.76660156 8.0078125 22.48046875 C7.69473145 23.10848389 7.38165039 23.73649902 7.05908203 24.38354492 C6 26 6 26 3 28 C0.125 28.4375 0.125 28.4375 -3 28 C-5.875 25.875 -5.875 25.875 -8 23 C-8.8365459 17.26368527 -6.49982037 13.10775006 -4 8.125 C-3.6184375 7.34125 -3.236875 6.5575 -2.84375 5.75 C-1.90628615 3.82819911 -0.95455414 1.91336968 0 0 Z " fill="#E0E5EC" transform="translate(237,294)"/>
<path d="M0 0 C3.85025879 0.60355408 6.86101159 1.76772603 10.3125 3.5625 C11.19550781 4.01753906 12.07851562 4.47257812 12.98828125 4.94140625 C13.98408203 5.46541016 13.98408203 5.46541016 15 6 C14.02443588 10.39308337 12.12455089 14.11873137 10.125 18.125 C9.59712891 19.21748047 9.59712891 19.21748047 9.05859375 20.33203125 C8.71183594 21.02941406 8.36507812 21.72679687 8.0078125 22.4453125 C7.69473145 23.07969238 7.38165039 23.71407227 7.05908203 24.36767578 C6 26 6 26 3 28 C0.125 28.4375 0.125 28.4375 -3 28 C-5.875 25.875 -5.875 25.875 -8 23 C-8.8365459 17.26368527 -6.49982037 13.10775006 -4 8.125 C-3.6184375 7.34125 -3.236875 6.5575 -2.84375 5.75 C-1.90628615 3.82819911 -0.95455414 1.91336968 0 0 Z " fill="#E0E5EC" transform="translate(208,280)"/>
<path d="M0 0 C0.88365234 0.02255859 1.76730469 0.04511719 2.67773438 0.06835938 C4.8483891 0.12702572 7.0181669 0.21670021 9.1875 0.3125 C9.1875 5.5925 9.1875 10.8725 9.1875 16.3125 C6.12351549 16.44780844 3.06552874 16.5467407 0 16.625 C-0.86431641 16.66689453 -1.72863281 16.70878906 -2.61914062 16.75195312 C-7.16720923 16.83908088 -9.15575258 16.81069341 -12.88671875 13.98046875 C-14.8125 11.3125 -14.8125 11.3125 -15.4375 8.3125 C-13.65212162 -0.25731623 -7.30392069 -0.35403046 0 0 Z " fill="#E2E6EC" transform="translate(190.8125,235.6875)"/>
<path d="M0 0 C0.88365234 0.02255859 1.76730469 0.04511719 2.67773438 0.06835938 C4.8483891 0.12702572 7.0181669 0.21670021 9.1875 0.3125 C9.1875 5.5925 9.1875 10.8725 9.1875 16.3125 C6.12351549 16.44780844 3.06552874 16.5467407 0 16.625 C-0.86431641 16.66689453 -1.72863281 16.70878906 -2.61914062 16.75195312 C-7.16720923 16.83908088 -9.15575258 16.81069341 -12.88671875 13.98046875 C-14.8125 11.3125 -14.8125 11.3125 -15.4375 8.3125 C-13.65212162 -0.25731623 -7.30392069 -0.35403046 0 0 Z " fill="#E2E6EC" transform="translate(190.8125,203.6875)"/>
<path d="M0 0 C0.88365234 0.02255859 1.76730469 0.04511719 2.67773438 0.06835938 C4.8483891 0.12702572 7.0181669 0.21670021 9.1875 0.3125 C9.1875 5.5925 9.1875 10.8725 9.1875 16.3125 C6.12351549 16.44780844 3.06552874 16.5467407 0 16.625 C-0.86431641 16.66689453 -1.72863281 16.70878906 -2.61914062 16.75195312 C-7.16720923 16.83908088 -9.15575258 16.81069341 -12.88671875 13.98046875 C-14.8125 11.3125 -14.8125 11.3125 -15.4375 8.3125 C-13.65212162 -0.25731623 -7.30392069 -0.35403046 0 0 Z " fill="#E2E6EC" transform="translate(190.8125,171.6875)"/>
<path d="M0 0 C0.88365234 0.02255859 1.76730469 0.04511719 2.67773438 0.06835938 C4.8483891 0.12702572 7.0181669 0.21670021 9.1875 0.3125 C9.1875 5.5925 9.1875 10.8725 9.1875 16.3125 C6.12351549 16.44780844 3.06552874 16.5467407 0 16.625 C-0.86431641 16.66689453 -1.72863281 16.70878906 -2.61914062 16.75195312 C-7.16720923 16.83908088 -9.15575258 16.81069341 -12.88671875 13.98046875 C-14.8125 11.3125 -14.8125 11.3125 -15.4375 8.3125 C-13.65212162 -0.25731623 -7.30392069 -0.35403046 0 0 Z " fill="#E2E6EC" transform="translate(190.8125,139.6875)"/>
<path d="M0 0 C0.88365234 0.02255859 1.76730469 0.04511719 2.67773438 0.06835938 C4.8483891 0.12702572 7.0181669 0.21670021 9.1875 0.3125 C9.1875 5.5925 9.1875 10.8725 9.1875 16.3125 C6.12351549 16.44780844 3.06552874 16.5467407 0 16.625 C-0.86431641 16.66689453 -1.72863281 16.70878906 -2.61914062 16.75195312 C-7.16720923 16.83908088 -9.15575258 16.81069341 -12.88671875 13.98046875 C-14.8125 11.3125 -14.8125 11.3125 -15.4375 8.3125 C-13.65212162 -0.25731623 -7.30392069 -0.35403046 0 0 Z " fill="#E2E6EC" transform="translate(190.8125,107.6875)"/>
<path d="M0 0 C0.88365234 0.02255859 1.76730469 0.04511719 2.67773438 0.06835938 C4.8483891 0.12702572 7.0181669 0.21670021 9.1875 0.3125 C9.1875 5.5925 9.1875 10.8725 9.1875 16.3125 C6.12351549 16.44780844 3.06552874 16.5467407 0 16.625 C-0.86431641 16.66689453 -1.72863281 16.70878906 -2.61914062 16.75195312 C-7.16720923 16.83908088 -9.15575258 16.81069341 -12.88671875 13.98046875 C-14.8125 11.3125 -14.8125 11.3125 -15.4375 8.3125 C-13.65212162 -0.25731623 -7.30392069 -0.35403046 0 0 Z " fill="#E2E6EC" transform="translate(190.8125,75.6875)"/>
<path d="M0 0 C0.88365234 0.02255859 1.76730469 0.04511719 2.67773438 0.06835938 C4.8483891 0.12702572 7.0181669 0.21670021 9.1875 0.3125 C9.1875 5.5925 9.1875 10.8725 9.1875 16.3125 C6.12351549 16.44780844 3.06552874 16.5467407 0 16.625 C-0.86431641 16.66689453 -1.72863281 16.70878906 -2.61914062 16.75195312 C-7.16720923 16.83908088 -9.15575258 16.81069341 -12.88671875 13.98046875 C-14.8125 11.3125 -14.8125 11.3125 -15.4375 8.3125 C-13.65212162 -0.25731623 -7.30392069 -0.35403046 0 0 Z " fill="#E2E6EC" transform="translate(190.8125,43.6875)"/>
</svg>
