<?xml version="1.0" encoding="utf-8"?>
<!-- Generator: Adobe Illustrator 27.5.0, SVG Export Plug-In . SVG Version: 6.00 Build 0)  -->
<svg version="1.1" id="Layer_1" xmlns="http://www.w3.org/2000/svg" xmlns:xlink="http://www.w3.org/1999/xlink" x="0px" y="0px"
	 viewBox="0 0 3000 2025" style="enable-background:new 0 0 3000 2025;" xml:space="preserve">
<rect style="fill:#FEFEFE;" width="3000" height="2025"/>
<path style="fill:#4186FF;" d="M1573.424,1300.136"/>
<g>
	<g>
		<path style="fill:#FBD872;" d="M1972.041,386.765c-119.002-96.974-270.892-155.129-436.371-155.129
			c-381.777,0-691.269,309.492-691.269,691.269c0,47.05,4.703,93.001,13.661,137.411L1972.041,386.765z"/>
		<path style="fill:#FBD872;" d="M2016.824,361.42L887.886,1078.983c33.341,104.051,90.663,197.37,165.462,273.453l1183.282-448.098
			c0.628-12.084,0.952-24.249,0.952-36.489C2237.581,667.825,2152.622,487.645,2016.824,361.42z"/>
		<path style="fill:#FBD872;" d="M1203.935,1303.347c122.632,110.978,285.259,178.578,463.679,178.578
			c344.14,0,629.532-251.482,682.46-580.697C2093.721,990.644,1436.422,1220.125,1203.935,1303.347z"/>
	</g>
	<g>
		<g>
			<defs>
				<path id="XMLID_138_" d="M1359.848,1338.996l321.399,423.341h51.531c0,0-34.484-385.696-246.434-468.729L1359.848,1338.996z"/>
			</defs>
			<use xlink:href="#XMLID_138_"  style="overflow:visible;fill:#FA704E;"/>
			<clipPath id="XMLID_00000044168055397886155490000013448538178959718540_">
				<use xlink:href="#XMLID_138_"  style="overflow:visible;"/>
			</clipPath>
			<path style="clip-path:url(#XMLID_00000044168055397886155490000013448538178959718540_);fill:#EF92C8;" d="M1589.197,1372.681
				c0,0,63.155,17.148,37.834,318.246c-25.321,301.098,0,0,0,0l-285.126-345.534l30.494-97.426
				C1372.399,1247.966,1542.531,1259.529,1589.197,1372.681"/>
		</g>
		<path style="fill:#4182FF;" d="M1430.688,1046.111c0,0-68.909,135.902-81.988,189.263c-8.099,33.046-12.46,100.223-12.46,100.223
			s72.735,18.802,109.359,4.306l74.772-159.463L1430.688,1046.111z"/>
		<path style="fill:#19283F;" d="M1589.197,1372.681c0,0-11.52,21.834-62.572-2.034l37.129-45.416
			C1563.753,1325.23,1590.441,1348.857,1589.197,1372.681z"/>
		<path style="fill:#FA704E;" d="M1440.033,1279.208c0,0-39.431,78.264-30.494,107.06s113.888,376.07,113.888,376.07h48.655
			c0,0,55.606-268.1-30.782-364.417l48.396-70.5C1589.696,1327.42,1524.45,1187.305,1440.033,1279.208z"/>
		<g>
			<g>
				<defs>
					<path id="XMLID_137_" d="M1746.801,727.453c0,0-33.711,127.094-103.732,132.55c-70.021,5.456-31.828-189.148-31.828-189.148
						l-25.854-8.317c0,0-86.095,172.342-120.438,104.33l-24.915,221.544c0,0,32.73,69.498,229.942,29.858
						c0,0,77.356-178.653,91.231-281.718L1746.801,727.453z"/>
				</defs>
				<use xlink:href="#XMLID_137_"  style="overflow:visible;fill:#4182FF;"/>
				<clipPath id="XMLID_00000021100882253043962000000011384800112701160878_">
					<use xlink:href="#XMLID_137_"  style="overflow:visible;"/>
				</clipPath>
				<polygon style="clip-path:url(#XMLID_00000021100882253043962000000011384800112701160878_);fill:#6ECEB3;" points="
					1483.32,771.959 1449.57,1010.525 1433.106,998.09 1440.033,750.412 1475.478,750.412 				"/>
			</g>
			<g>
				<defs>
					<path id="XMLID_136_" d="M1430.688,1046.111l51.582,149.538l-42.236,83.559c0,0,112.341,23.368,149.164,93.473
						c0,0,44.522-89.152,80.779-178.719c28.477-70.35-5.988-133.172-5.988-133.172L1430.688,1046.111z"/>
				</defs>
				<use xlink:href="#XMLID_136_"  style="overflow:visible;fill:#4182FF;"/>
				<clipPath id="XMLID_00000123439525515208119110000009954405896064933005_">
					<use xlink:href="#XMLID_136_"  style="overflow:visible;"/>
				</clipPath>
				<path style="clip-path:url(#XMLID_00000123439525515208119110000009954405896064933005_);fill:#6ECEB3;" d="M1541.301,1345.392
					c0,0,102.704-167.84,105.456-184.356c2.753-16.516-3.67-114.925-3.67-114.925l47.085-5.554c0,0,16.177,111.304,7.484,159.015
					c-8.693,47.711-104.464,207.359-107.96,203.689C1586.201,1399.591,1541.301,1345.392,1541.301,1345.392z"/>
			</g>
			<path style="fill:#FFFFFF;" d="M1440.033,988.412l-9.345,57.699c0,0,89.612,55.621,233.299,14.678l5.988-42.519
				C1669.976,1018.27,1496.502,1045.818,1440.033,988.412z"/>
		</g>
		<g>
			<defs>
				<path id="XMLID_135_" d="M1595.97,972.313c2.011-0.091,83.434,18.396,112.163,61.222c28.729,42.826-22.918,76.99-50.197,75.199
					c-27.28-1.791-101.968-98.569-101.968-98.569L1595.97,972.313z"/>
			</defs>
			<use xlink:href="#XMLID_135_"  style="overflow:visible;fill:#FA704E;"/>
			<clipPath id="XMLID_00000170963617636368243140000009593101392768800387_">
				<use xlink:href="#XMLID_135_"  style="overflow:visible;"/>
			</clipPath>
			<path style="clip-path:url(#XMLID_00000170963617636368243140000009593101392768800387_);fill:#EF92C8;" d="M1591.092,995.874
				c0,0,0.424,1.334,1.263,3.711c6.759,19.158,40.443,106.092,96.155,109.216c0,0-16.7,14.181-34.328,6.294
				c-17.628-7.886-80.254-74.539-80.254-74.539L1591.092,995.874z"/>
		</g>
		<path style="fill:#19283F;" d="M1634.253,981.583c-18.722-8.96-29.834-28.502-28.387-49.207
			c1.599-22.873-1.258-46.632-10.442-66.017c-22.465-47.417-108.014-20.914-108.014-20.914
			c-56.08,18.935-68.846,47.529-59.814,70.655c9.701,24.838,60.962,68.282,101.828,87.915c20.806,9.996,39.368,24.109,54.227,41.774
			l0.271,0.323c35.53-9.764,50.334-64.526,50.334-64.526L1634.253,981.583z"/>
		<path style="fill:#FA704E;" d="M1761.206,736.552c0,0,112.618,34.565,99.92,121.07
			c-12.698,86.504-153.962,226.588-153.962,226.588l-31.193-80.133c0,0-0.134-5.371,0.115-14.006
			c1.538-53.26,22.25-104.179,58.144-143.557l0,0C1734.23,846.513,1758.61,749.232,1761.206,736.552z"/>
		<path style="fill:#19283F;" d="M1440.033,1279.208l41.222-92.024c2.839-6.337,2.745-13.602-0.255-19.864l-30.364-63.375
			l22.482,68.137c1.505,4.559,1.194,9.523-0.868,13.859l-38.254,80.462C1431.517,1271.62,1434.431,1277.801,1440.033,1279.208
			L1440.033,1279.208z"/>
		<path style="fill:#19283F;" d="M1719.34,1041.767c-0.537,0-1.028-0.361-1.17-0.906c-8.328-32.085-41.972-35.549-42.311-35.58
			c-0.665-0.061-1.154-0.65-1.093-1.315c0.061-0.665,0.643-1.154,1.315-1.093c0.355,0.033,35.679,3.669,44.43,37.381
			c0.167,0.646-0.221,1.307-0.867,1.475C1719.543,1041.754,1719.44,1041.767,1719.34,1041.767z"/>
		<path style="fill:#19283F;" d="M1734.229,847.723c-0.245,0-0.492-0.074-0.707-0.229c-0.541-0.391-0.663-1.146-0.272-1.688
			c0.532-0.738,13.387-18.075,43.74-18.458c0.006,0,0.011,0,0.016,0c0.661,0,1.201,0.532,1.209,1.194
			c0.009,0.667-0.526,1.216-1.193,1.224c-29.147,0.369-41.688,17.285-41.811,17.456
			C1734.974,847.549,1734.604,847.723,1734.229,847.723z"/>
		<g>
			<defs>
				<path id="XMLID_134_" d="M1464.949,766.868l-161.933,11.839l-277.451,20.087v-51.662c0,0,157.517-91.884,287.733-57.419
					c0,0,134.58-105.933,272.089-27.174C1585.387,662.538,1498.928,845.282,1464.949,766.868z"/>
			</defs>
			<use xlink:href="#XMLID_134_"  style="overflow:visible;fill:#FA704E;"/>
			<clipPath id="XMLID_00000074425254711017199460000000104050004962366626_">
				<use xlink:href="#XMLID_134_"  style="overflow:visible;"/>
			</clipPath>
			<path style="clip-path:url(#XMLID_00000074425254711017199460000000104050004962366626_);fill:#EF92C8;" d="M1464.949,766.868
				c0,0,35.951-2.633,64.658-48.488c0,0-8.81,76.066-44.475,80.414S1464.949,766.868,1464.949,766.868"/>
			<path style="clip-path:url(#XMLID_00000074425254711017199460000000104050004962366626_);fill:#EF92C8;" d="M1101.544,753.963
				c0,0,115.521,18.959,134.48,19.841c18.96,0.882,147.325-0.971,147.325-0.971l-295.033,38.008l-3.086-17.637L1101.544,753.963z"/>
		</g>
		<path style="fill:#19283F;" d="M1046.966,724.747c0,0,29.622-14.407,45.812-5.099c16.19,9.308,60.174,80.615-19.798,81.286
			c0,0-27.248,84.458-80.206,46.682c0,0-83.559,5.508-106.215-41.585c-22.656-47.093,20.45-94.298,61.401-94.518
			C988.909,711.294,1046.966,724.747,1046.966,724.747z"/>
		<g>
			<g>
				<defs>
					<path id="XMLID_133_" d="M1673.455,622.538L1673.455,622.538c0.973-6.857,1.492-14.021,1.492-21.395
						c0-49.466-23.204-89.566-51.828-89.566s-51.828,40.1-51.828,89.566c0,30.347,8.735,57.164,22.095,73.365
						c-14.039,33.972-60.408,162.588,29.733,189.5c104.082,31.075,123.681-136.555,123.681-136.555l-0.618-0.399
						C1709.146,703.127,1683.02,665.581,1673.455,622.538z"/>
				</defs>
				<use xlink:href="#XMLID_133_"  style="overflow:visible;fill:#FA704E;"/>
				<clipPath id="XMLID_00000077324338500925428060000017718197621325208213_">
					<use xlink:href="#XMLID_133_"  style="overflow:visible;"/>
				</clipPath>
				<path style="clip-path:url(#XMLID_00000077324338500925428060000017718197621325208213_);fill:#EF92C8;" d="M1635.862,669.634
					c0,0,25.268,27.25,24.427,50.512s-92.487,52.409-92.487,52.409s14.255-87.09,23.957-100.104c9.702-13.014,0,0,0,0
					s6.853,9.13,24.245,7.992c17.393-1.139,0,0,0,0S1631.491,676.305,1635.862,669.634"/>
			</g>
			<path style="fill:#19283F;" d="M1611.385,681.58c-11.043,0-18.41-6.359-18.534-6.47c-0.333-0.296-0.363-0.805-0.067-1.137
				c0.295-0.333,0.805-0.363,1.138-0.068c0.826,0.731,20.475,17.597,44.115-7.587c0.307-0.325,0.816-0.34,1.14-0.036
				c0.324,0.305,0.341,0.815,0.036,1.14C1628.935,678.367,1619.231,681.58,1611.385,681.58z"/>
			<path style="fill:#19283F;" d="M1574.405,570.501l60.737-2.305c0,0-5.693,28.176,3.483,34.302
				c9.176,6.125,5.092-20.826,13.668-12.659c6.217,5.921,5.78,20.642,3.358,27.98c-1.153,3.495-0.362,7.336,2.214,9.964l9.486,9.676
				c2.591,2.643,7.024,1.88,8.584-1.476v0c0,0,15.151-81.262-13.026-115.972C1634.733,485.301,1574.465,509.522,1574.405,570.501z"
				/>
			<path style="fill:#19283F;" d="M1579.643,641.064c-0.172,0-0.347-0.023-0.521-0.069c-8.763-2.341-10.206-9.795-10.264-10.111
				l-0.304-1.682l1.609-0.575c14.948-5.339,16.253-31.949,16.265-32.217c0.047-1.111,0.945-1.961,2.099-1.928
				c1.111,0.047,1.975,0.985,1.929,2.097c-0.049,1.162-1.333,27.579-17.104,35.083c0.785,1.684,2.643,4.325,6.812,5.438
				c1.075,0.288,1.714,1.392,1.427,2.467C1581.348,640.469,1580.533,641.063,1579.643,641.064z"/>
			<path style="fill:#19283F;" d="M1610.733,594.867c0,3.212-1.552,5.815-3.467,5.815s-3.467-2.604-3.467-5.815
				c0-3.212,1.552-5.815,3.467-5.815S1610.733,591.655,1610.733,594.867z"/>
			<path style="fill:#19283F;" d="M1583.108,593.301c0,3.212-1.552,5.815-3.467,5.815c-1.915,0-3.467-2.604-3.467-5.815
				c0-3.212,1.552-5.815,3.467-5.815C1581.556,587.486,1583.108,590.089,1583.108,593.301z"/>
			<path style="fill:#19283F;" d="M1581.469,656.461c-0.793,0-1.545-0.471-1.865-1.249c-0.423-1.029,0.068-2.207,1.098-2.63
				l20.584-8.469c1.03-0.425,2.207,0.068,2.631,1.097c0.423,1.029-0.068,2.207-1.098,2.63l-20.584,8.469
				C1581.983,656.412,1581.724,656.461,1581.469,656.461z"/>
			<path style="fill:#19283F;" d="M1603.531,583.972c-2.931,0-4.941-0.611-5.124-0.669c-1.062-0.335-1.65-1.467-1.315-2.529
				c0.335-1.06,1.462-1.646,2.521-1.317c0.337,0.103,8.145,2.393,15.036-3.874c0.824-0.749,2.1-0.687,2.847,0.135
				c0.749,0.824,0.688,2.098-0.136,2.847C1612.51,582.977,1607.271,583.972,1603.531,583.972z"/>
			<path style="fill:#19283F;" d="M1587.049,582.759c-0.791,0-2.968-0.214-6.454-0.564c-2.905-0.291-6.885-0.698-7.731-0.669
				c-1.125,0.017-2.037-0.853-2.064-1.965c-0.027-1.113,0.852-2.037,1.965-2.064c1.006-0.027,3.924,0.256,8.232,0.688
				c2.542,0.254,5.423,0.543,6.053,0.543c1.113,0,2.016,0.902,2.016,2.016C1589.064,581.856,1588.162,582.759,1587.049,582.759z"/>
			<path style="fill:#19283F;" d="M1649.97,616.667c-0.757,0-1.488-0.249-2.047-0.75c-0.498-0.445-0.54-1.21-0.094-1.708
				c0.445-0.499,1.212-0.539,1.707-0.093c0.251,0.223,0.843,0.146,1.222-0.157c0.451-0.36,0.799-0.989,1.095-1.979
				c0.982-3.294,0.692-6.87,0.411-10.328c-0.07-0.87-0.143-1.768-0.496-2.458c-0.275-0.54-0.785-0.929-1.199-0.889
				c-0.583,0.045-1.142,0.773-1.706,2.226c-0.839,2.155-1.706,4.382-1.627,6.626c0.024,0.667-0.498,1.228-1.165,1.251
				c-0.672,0.012-1.229-0.498-1.251-1.165c-0.098-2.743,0.904-5.317,1.789-7.589c0.38-0.978,1.391-3.577,3.773-3.761
				c1.364-0.112,2.81,0.775,3.538,2.197c0.573,1.118,0.674,2.364,0.754,3.366c0.285,3.508,0.608,7.486-0.504,11.215
				c-0.279,0.934-0.78,2.28-1.902,3.177C1651.586,616.393,1650.764,616.667,1649.97,616.667z"/>
		</g>
		<path style="fill:#19283F;" d="M1132.888,814.956c-0.525,0-1.009-0.345-1.162-0.875c-0.185-0.642,0.186-1.312,0.827-1.497
			c0.219-0.063,22.156-6.47,44.15-19.859c20.156-12.27,44.5-33.093,46.015-62.616c0.034-0.667,0.605-1.192,1.27-1.145
			c0.667,0.034,1.18,0.602,1.146,1.269c-1.242,24.216-17.569,46.549-47.217,64.585c-22.267,13.545-44.471,20.026-44.693,20.09
			C1133.112,814.94,1132.999,814.956,1132.888,814.956z"/>
		<g>
			<g>
				<defs>
					<path id="XMLID_132_" d="M1572.083,1762.338h-48.655l-88.477,34.521c-17.429,6.8-32.458,18.603-43.196,33.924l-4.639,6.62
						h191.336L1572.083,1762.338z"/>
				</defs>
				<use xlink:href="#XMLID_132_"  style="overflow:visible;fill:#4182FF;"/>
				<clipPath id="XMLID_00000047772120114014660140000015545361667422804126_">
					<use xlink:href="#XMLID_132_"  style="overflow:visible;"/>
				</clipPath>
				<path style="clip-path:url(#XMLID_00000047772120114014660140000015545361667422804126_);fill:#19283F;" d="M1515.959,1848.364
					c-0.972,0-1.827-0.704-1.986-1.694c-2.299-14.247,6.985-30.005,27.592-46.835c15.063-12.301,30.992-20.704,31.151-20.788
					c0.982-0.516,2.203-0.137,2.721,0.85c0.517,0.985,0.137,2.203-0.849,2.721c-0.617,0.323-61.591,32.696-56.637,63.41
					c0.178,1.1-0.569,2.134-1.668,2.311C1516.174,1848.355,1516.066,1848.364,1515.959,1848.364z"/>
				<path style="clip-path:url(#XMLID_00000047772120114014660140000015545361667422804126_);fill:#19283F;" d="M1421.002,1814.45
					c-0.528,0-1.052-0.043-1.565-0.13c-4.236-0.722-7.135-4.029-9.741-7.354l-2.778-3.545c-0.687-0.876-0.533-2.143,0.343-2.829
					s2.142-0.534,2.829,0.343l2.779,3.545c2.208,2.817,4.424,5.386,7.245,5.867c1.769,0.296,3.789-0.306,5.41-1.62
					c1.491-1.209,2.72-3.041,3.555-5.297c0.834-2.253,0.909-5.201,0.178-7.012l3.652-1.693c1.369,2.603,4.079,4.601,7.247,5.345
					c2.949,0.69,6.337,0.337,9.541-0.996c1-0.417,1.764-0.833,2.403-1.307c1.723-1.275,2.866-3.312,3.057-5.446
					c0.039-0.438-0.052-0.955-0.222-1.421c-0.503-0.557-0.973-1.146-1.405-1.769l-5.645-8.133l8.375,5.278
					c0.916,0.577,1.611,1.427,2.096,2.378c2.166,2.189,5.012,3.597,7.956,3.872c3.766,0.349,7.643-1.259,9.864-4.105
					c2.278-2.92,2.754-7.155,1.158-10.299l-7.167-14.12l10.476,11.875c2.498,2.831,4.726,4.689,7.013,5.848
					c2.745,1.391,5.698,1.74,8.104,0.958c2.524-0.82,4.472-3.095,4.632-5.409c0.119-1.717-0.722-3.618-1.536-5.458l-5.338-12.102
					l8.578,9.695c1.16,1.312,2.992,2.253,5.159,2.65c2.195,0.403,4.497,0.258,6.655,0.039c2.218-0.226,4.648-0.656,5.85-2.143
					c1.365-1.689,1.042-4.468,0.594-7.169c-0.182-1.099,0.561-2.136,1.658-2.318c1.104-0.186,2.136,0.561,2.318,1.658
					c0.571,3.446,0.979,7.374-1.436,10.362c-2.132,2.639-5.532,3.311-8.578,3.619c-2.339,0.237-5.092,0.41-7.79-0.084
					c-0.667-0.123-1.42-0.304-2.207-0.57c0.104,0.682,0.143,1.381,0.094,2.097c-0.272,3.95-3.319,7.637-7.407,8.966
					c-3.41,1.11-7.482,0.674-11.171-1.196c-1.289-0.653-2.474-1.442-3.546-2.279c-0.162,2.799-1.158,5.581-2.934,7.858
					c-3.045,3.904-8.314,6.116-13.418,5.641c-2.458-0.229-4.858-1.051-7.006-2.347c-0.618,2.693-2.209,5.167-4.431,6.813
					c-0.896,0.663-1.959,1.248-3.251,1.788c-3.979,1.656-8.247,2.085-12.013,1.199c-2.035-0.478-3.938-1.351-5.578-2.523
					c-0.156,1.233-0.44,2.392-0.798,3.36c-1.086,2.933-2.745,5.362-4.796,7.027C1425.999,1813.53,1423.451,1814.45,1421.002,1814.45
					z"/>
			</g>
			<rect x="1387.115" y="1837.403" style="fill:#19283F;" width="191.336" height="11.456"/>
		</g>
		<g>
			<defs>
				<path id="XMLID_131_" d="M1749.03,1791.551l-16.252-29.214h-51.531l-1.009,26.218c-42.06-5.757-41.21,60.304-41.21,60.304
					h38.888h59.572h32.235C1765.955,1828.767,1758.968,1809.415,1749.03,1791.551z"/>
			</defs>
			<use xlink:href="#XMLID_131_"  style="overflow:visible;fill:#4182FF;"/>
			<clipPath id="XMLID_00000072253411557111990830000004665740734586397845_">
				<use xlink:href="#XMLID_131_"  style="overflow:visible;"/>
			</clipPath>
			
				<rect x="1635.017" y="1837.403" style="clip-path:url(#XMLID_00000072253411557111990830000004665740734586397845_);fill:#19283F;" width="139.163" height="16.31"/>
		</g>
		<path style="fill:#19283F;" d="M1723.82,1820.717c-0.619,0-1.229-0.283-1.624-0.819c-14.863-20.153-41.324-29.203-41.59-29.292
			c-1.056-0.354-1.624-1.496-1.271-2.551c0.354-1.056,1.496-1.626,2.551-1.271c1.132,0.379,27.92,9.521,43.555,30.722
			c0.66,0.896,0.47,2.157-0.426,2.818C1724.654,1820.589,1724.235,1820.717,1723.82,1820.717z"/>
		<path style="fill:#19283F;" d="M1555.967,1402.953c-0.193,0-0.39-0.047-0.571-0.145c-18.146-9.759-35.997-14.881-53.06-15.225
			c-13.706-0.283-23.158,2.61-27.691,3.997c-1.703,0.521-2.417,0.732-2.97,0.732c-0.668,0-1.209-0.541-1.209-1.209
			c0-0.665,0.538-1.205,1.203-1.209c0.274-0.017,1.288-0.327,2.269-0.627c4.654-1.424,14.323-4.386,28.448-4.103
			c17.449,0.352,35.67,5.57,54.156,15.512c0.588,0.316,0.808,1.05,0.492,1.638
			C1556.814,1402.722,1556.397,1402.952,1555.967,1402.953z"/>
		<path style="fill:#19283F;" d="M1349.376,710.383c-0.258,0-0.518-0.083-0.738-0.252c-15.704-12.135-35.543-19.207-35.742-19.277
			c-0.63-0.222-0.96-0.913-0.739-1.543c0.222-0.63,0.913-0.961,1.542-0.739c0.202,0.071,20.397,7.265,36.417,19.644
			c0.529,0.409,0.626,1.168,0.218,1.696C1350.096,710.221,1349.738,710.383,1349.376,710.383z"/>
	</g>
	<g>
		<g>
			<g>
				<g>
					<defs>
						<path id="XMLID_130_" d="M711.033,1619.088l-235.052-59.963c-46.379-11.832-74.386-59.021-62.555-105.4L642.41,556.117
							c11.832-46.38,59.021-74.386,105.401-62.555l235.052,59.963c46.38,11.832,74.386,59.021,62.554,105.4l-228.983,897.609
							C804.602,1602.913,757.412,1630.92,711.033,1619.088z"/>
					</defs>
					<use xlink:href="#XMLID_130_"  style="overflow:visible;fill:#4182FF;"/>
					<clipPath id="XMLID_00000014612116855573312220000010011836124024673680_">
						<use xlink:href="#XMLID_130_"  style="overflow:visible;"/>
					</clipPath>
					<path style="opacity:0.5;clip-path:url(#XMLID_00000014612116855573312220000010011836124024673680_);fill:#19283F;" d="
						M999.889,533.644c0,0-319.452,409.148-238.095,470.432s160.09,53.411-5.249,158.388
						c-165.339,104.977-307.058,160.501-175.836,219.345c131.221,58.844-217.827,161.197-217.827,161.197
						S794.466,1682.1,827.994,1658.48c33.528-23.62,291.483-1081.406,291.483-1081.406L999.889,533.644z"/>
				</g>
				
					<rect x="620.037" y="636.177" transform="matrix(0.969 0.2472 -0.2472 0.969 191.2914 -183.8804)" style="fill:#19283F;" width="415.914" height="67.495"/>
			</g>
			<path style="fill:#19283F;" d="M955.891,388.736l-21.705-126.362l-79.585,100.523l-0.132-0.034L622.193,652.252l8.091,2.064
				L862.56,364.927h0c22.422,5.72,35.961,28.533,30.241,50.955l-73.149,286.742l8.09,2.064l74.181-290.787
				c5.15-20.188,25.69-32.378,45.878-27.228l0,0l65.264,365.293l8.09,2.064L955.891,388.736z"/>
		</g>
		<path style="fill:#19283F;" d="M929.843,280.681c-0.646,0-1.301-0.157-1.908-0.488c-1.94-1.056-2.657-3.485-1.602-5.426
			c0.843-1.548,21.145-38.242,65.124-66.66c25.851-16.705,54.509-26.983,85.177-30.551c38.201-4.444,79.604,1.584,123.049,17.919
			c102.12,38.397,186.329,59.082,257.438,63.234c81.108,4.737,144.556-11.819,193.942-50.615c1.738-1.365,4.252-1.062,5.616,0.674
			c1.364,1.737,1.063,4.252-0.675,5.617c-25.962,20.395-56.444,35.082-90.6,43.651c-32.202,8.079-68.796,10.993-108.75,8.659
			c-71.925-4.2-156.902-25.047-259.788-63.732c-42.238-15.882-82.381-21.757-119.309-17.461
			c-29.438,3.425-56.946,13.291-81.759,29.324c-42.285,27.324-62.242,63.405-62.44,63.766
			C932.635,279.926,931.261,280.681,929.843,280.681z"/>
	</g>
	<g>
		<path style="fill:#19283F;" d="M925.847,1445.1c-1.199,0-2.332-0.724-2.795-1.908c-0.604-1.543,0.158-3.283,1.701-3.887
			l379.63-148.489c1.544-0.604,3.283,0.157,3.887,1.701c0.604,1.543-0.158,3.283-1.701,3.887l-379.63,148.489
			C926.58,1445.033,926.21,1445.1,925.847,1445.1z"/>
		<path style="fill:#19283F;" d="M1719.341,1167.358c-1.213,0-2.354-0.741-2.808-1.943c-0.584-1.55,0.199-3.28,1.75-3.865
			l815.87-307.429c1.551-0.587,3.281,0.2,3.865,1.749c0.584,1.551-0.199,3.281-1.75,3.865l-815.87,307.43
			C1720.05,1167.296,1719.692,1167.358,1719.341,1167.358z"/>
		<path style="fill:#19283F;" d="M1777.008,574.554c-0.997,0-1.972-0.497-2.542-1.403c-0.883-1.402-0.461-3.255,0.941-4.137
			l378.596-238.186c1.401-0.884,3.254-0.461,4.137,0.941c0.883,1.402,0.461,3.255-0.941,4.137l-378.596,238.186
			C1778.106,574.405,1777.554,574.554,1777.008,574.554z"/>
		<path style="fill:#19283F;" d="M977.831,1078.83c-1.012,0-2-0.512-2.565-1.439c-0.861-1.415-0.413-3.261,1.003-4.123
			l430.394-262.084c1.414-0.861,3.261-0.414,4.123,1.002c0.861,1.416,0.413,3.261-1.002,4.123l-430.394,262.084
			C978.9,1078.689,978.362,1078.83,977.831,1078.83z"/>
	</g>
	<g>
		<g>
			<path style="fill:#19283F;" d="M561.811,1851.859H431.258c-1.657,0-3-1.343-3-3s1.343-3,3-3h130.553c1.657,0,3,1.343,3,3
				S563.468,1851.859,561.811,1851.859z"/>
			<path style="fill:#19283F;" d="M843.718,1851.859H611.857c-1.657,0-3-1.343-3-3s1.343-3,3-3h231.861c1.657,0,3,1.343,3,3
				S845.375,1851.859,843.718,1851.859z"/>
			<path style="fill:#19283F;" d="M1333.918,1851.859H887.886c-1.657,0-3-1.343-3-3s1.343-3,3-3h446.033c1.657,0,3,1.343,3,3
				S1335.575,1851.859,1333.918,1851.859z"/>
			<path style="fill:#FBD872;" d="M1614.487,1848.859h810.188c-35.981-2.89-79.743-17.144-99.687-47.231
				c-6.184-9.329-9.617-20.169-12.864-30.881c-8.382-27.658-16.164-55.879-30.734-80.838c-14.57-24.959-37.132-46.759-65.254-53.421
				c-28.122-6.662-61.543,5.481-73.274,31.893c-6.844,15.411-5.791,33.005-4.947,49.846c0.844,16.841,1.142,34.627-6.919,49.438
				c-8.062,14.81-27.474,24.795-42.331,16.818c-6.05-3.248-10.439-8.871-14.233-14.594c-13.969-21.071-26.805-48.842-51.976-51.197
				c-21.817-2.042-39.482,17.24-50.53,36.163c-11.049,18.923-20.849,40.744-40.518,50.402c-5.097,2.503-10.962,4.045-16.468,2.657
				c-6.121-1.542-10.798-6.393-14.791-11.281c-8.492-10.394-15.589-22.029-25.439-31.145c-9.851-9.117-23.508-15.571-36.584-12.541
				c-27.681,6.415-31.697,46.084-54.883,62.508c-17.315,12.265-41.128,8.657-61.213,1.814
				c-20.085-6.843-40.205-16.544-61.359-14.885C1639.519,1804.045,1608.92,1828.384,1614.487,1848.859z"/>
		</g>
		<path style="fill:#19283F;" d="M2589.284,1851.859h-134.163c-1.657,0-3-1.343-3-3s1.343-3,3-3h134.163c1.657,0,3,1.343,3,3
			S2590.941,1851.859,2589.284,1851.859z"/>
	</g>
</g>
</svg>
