<?xml version="1.0" encoding="UTF-8"?>
<svg version="1.1" xmlns="http://www.w3.org/2000/svg" width="512" height="512">
<path d="M0 0 C1.01288086 -0.00700928 2.02576172 -0.01401855 3.06933594 -0.02124023 C6.38025226 -0.03868634 9.69029741 -0.02724759 13.0012207 -0.01367188 C15.32046165 -0.01637 17.6397015 -0.02025508 19.9589386 -0.02526855 C24.80297693 -0.03114494 29.64671893 -0.02265811 34.49072266 -0.00390625 C40.68788229 0.01892013 46.88435029 0.00572448 53.08148479 -0.01819611 C57.86427494 -0.03267151 62.64690189 -0.02804066 67.42969704 -0.01768494 C69.71456803 -0.01502448 71.99945403 -0.01826333 74.28430748 -0.02760315 C77.47899876 -0.03780141 80.67257867 -0.02222248 83.8671875 0 C84.80297134 -0.00809692 85.73875519 -0.01619385 86.70289612 -0.02453613 C93.78225652 0.0663487 98.92987966 1.83473386 104.4465332 6.30664062 C104.97633789 6.9125 105.50614258 7.51835937 106.05200195 8.14257812 C106.59469727 8.73296875 107.13739258 9.32335937 107.6965332 9.93164062 C112.61280787 18.17106804 112.63031202 26.79031509 112.42700195 36.14257812 C112.4134668 37.33753906 112.39993164 38.5325 112.38598633 39.76367188 C112.35096488 42.68212613 112.30185188 45.5996016 112.23950195 48.51757812 C113.83665039 48.43056641 113.83665039 48.43056641 115.46606445 48.34179688 C128.56268583 47.84566676 139.89681717 49.69548137 150.21606445 58.57617188 C161.55803803 69.45833571 167.73895895 81.11830937 168.33452415 97.06127167 C168.37603508 100.00250843 168.38605103 102.94225797 168.38476562 105.88378906 C168.38980354 107.55374939 168.38980354 107.55374939 168.39494324 109.25744629 C168.40440872 112.92229339 168.40639418 116.58709458 168.4074707 120.25195312 C168.41068648 122.81252053 168.41405079 125.37308776 168.41755676 127.93365479 C168.42353713 133.29659525 168.42544079 138.65951877 168.42480469 144.02246094 C168.4242048 150.19358219 168.43474454 156.36461577 168.45054835 162.53571486 C168.46527754 168.50296113 168.46879063 174.47018103 168.46819496 180.43744659 C168.46937012 182.96183886 168.4737657 185.48623188 168.48152733 188.01061249 C168.49139543 191.55174397 168.48842224 195.09265351 168.48242188 198.63378906 C168.48804138 199.66276306 168.49366089 200.69173706 168.49945068 201.75189209 C168.42834357 218.381908 164.86096495 231.60997496 153.13793945 243.68164062 C143.75820639 252.53107076 133.29026085 256.83516722 120.48587036 256.78500366 C119.20010505 256.79180033 119.20010505 256.79180033 117.88836467 256.79873431 C115.02895519 256.81134929 112.16973689 256.80975982 109.31030273 256.80810547 C107.2549312 256.81409247 105.1995619 256.82089841 103.14419556 256.82846069 C97.56979133 256.84610897 91.99544854 256.85081554 86.42101908 256.85209227 C82.93653508 256.85351492 79.45206665 256.85778667 75.96758652 256.8630867 C63.80642456 256.88158209 51.64530642 256.8897578 39.48413086 256.88818359 C28.15571782 256.88698187 16.82749521 256.9080916 5.49913037 256.93967092 C-4.23441331 256.96583571 -13.96789479 256.97655082 -23.70147336 256.97527277 C-29.51163057 256.97476327 -35.32161845 256.98044076 -41.13174057 257.00162888 C-46.59669321 257.02101487 -52.06131503 257.02113305 -57.52627945 257.00659561 C-59.52853123 257.00450698 -61.53080374 257.00921159 -63.53302002 257.02131653 C-66.27336605 257.03680722 -69.01257669 257.02743582 -71.75289917 257.01205444 C-72.5390079 257.02234157 -73.32511663 257.0326287 -74.13504684 257.04322755 C-82.48578546 256.94014733 -90.68275681 253.27543825 -96.76049805 247.51757812 C-102.73796594 240.08017567 -104.85688823 233.93489894 -104.76049805 224.51757812 C-105.803974 224.52646057 -106.84744995 224.53534302 -107.92254639 224.54449463 C-117.75162386 224.62554696 -127.58063361 224.68552741 -137.40996933 224.72482681 C-142.46347725 224.74571026 -147.5167156 224.77404184 -152.57006836 224.81933594 C-157.44597273 224.86276652 -162.32161765 224.88670952 -167.1977005 224.8970871 C-169.05888199 224.90448348 -170.92004913 224.91892679 -172.7811203 224.94049835 C-175.38621309 224.96949556 -177.99023103 224.97353572 -180.59545898 224.97167969 C-181.36653992 224.98606079 -182.13762085 225.00044189 -182.93206787 225.01525879 C-186.43988718 224.98817942 -188.40579635 224.7776904 -191.27081299 222.67669678 C-192.76049805 220.51757812 -192.76049805 220.51757812 -192.76049805 217.51757812 C-216.52049805 217.51757812 -240.28049805 217.51757812 -264.76049805 217.51757812 C-264.76049805 174.94757813 -264.76049805 132.37757813 -264.76049805 88.51757812 C-241.00049805 88.51757812 -217.24049805 88.51757812 -192.76049805 88.51757812 C-192.43049805 86.53757812 -192.10049805 84.55757813 -191.76049805 82.51757812 C-187.99825255 80.00941446 -185.06263593 80.25011671 -180.70898438 80.29052734 C-179.88924637 80.29023529 -179.06950836 80.28994324 -178.22492981 80.28964233 C-175.51402215 80.29103625 -172.80338897 80.30660031 -170.0925293 80.32226562 C-168.21351776 80.32599554 -166.33450429 80.32884261 -164.45549011 80.33084106 C-159.50870397 80.33847924 -154.56203517 80.35812933 -149.61529541 80.38024902 C-144.56800931 80.40070347 -139.52070426 80.40984192 -134.47338867 80.41992188 C-124.56904023 80.44137503 -114.66477889 80.47551323 -104.76049805 80.51757812 C-104.77346924 79.24849609 -104.78644043 77.97941406 -104.79980469 76.671875 C-104.88041549 68.78503439 -100.8694302 62.93757586 -95.61987305 57.30664062 C-88.86148432 50.80382122 -82.70234773 48.24604333 -73.17456055 48.32226562 C-72.47277679 48.32509552 -71.77099304 48.32792542 -71.04794312 48.33084106 C-68.82694776 48.34195301 -66.60636959 48.36703979 -64.38549805 48.39257812 C-62.87118099 48.40261959 -61.35685756 48.41174339 -59.8425293 48.41992188 C-56.14838546 48.44186258 -52.45448254 48.47632937 -48.76049805 48.51757812 C-48.7742749 47.92589844 -48.78805176 47.33421875 -48.80224609 46.72460938 C-48.98669454 33.12257681 -43.41648076 22.6260225 -34.2097168 12.81054688 C-24.78187576 3.984163 -12.74377022 -0.11098645 0 0 Z " fill="#ED5464" transform="translate(272.760498046875,127.482421875)"/>
<path d="M0 0 C0.8329852 -0.00024107 1.6659704 -0.00048214 2.52419758 -0.00073051 C5.22172523 0.00076279 7.91897684 0.01599628 10.61645508 0.03173828 C12.28137072 0.03467866 13.9462882 0.03671913 15.61120605 0.0378418 C21.786161 0.04832968 27.96107637 0.07625207 34.13598633 0.10205078 C47.93411133 0.14330078 61.73223633 0.18455078 75.94848633 0.22705078 C75.94848633 47.74705078 75.94848633 95.26705078 75.94848633 144.22705078 C55.28223633 144.35080078 55.28223633 144.35080078 34.19848633 144.47705078 C29.84951172 144.5134668 25.50053711 144.54988281 21.01977539 144.58740234 C15.70581055 144.60546875 15.70581055 144.60546875 13.21746826 144.60882568 C11.48093568 144.61496483 9.74442007 144.62902679 8.00799561 144.64935303 C5.3762046 144.67861805 2.74545464 144.68267551 0.11352539 144.68115234 C-0.65902462 144.69554478 -1.43157463 144.70993721 -2.22753525 144.72476578 C-5.73385948 144.69758612 -7.69817774 144.48616151 -10.56182861 142.38616943 C-12.05151367 140.22705078 -12.05151367 140.22705078 -12.05151367 137.22705078 C-35.81151367 137.22705078 -59.57151367 137.22705078 -84.05151367 137.22705078 C-84.05151367 94.65705078 -84.05151367 52.08705078 -84.05151367 8.22705078 C-60.29151367 8.22705078 -36.53151367 8.22705078 -12.05151367 8.22705078 C-11.72151367 6.24705078 -11.39151367 4.26705078 -11.05151367 2.22705078 C-7.2891831 -0.2811696 -4.3536002 -0.0403653 0 0 Z " fill="#D94453" transform="translate(92.051513671875,207.77294921875)"/>
<path d="M0 0 C1.0320488 -0.01043099 2.0640976 -0.02086198 3.1274206 -0.03160906 C4.82596697 -0.01822473 4.82596697 -0.01822473 6.5588274 -0.00457001 C7.76306553 -0.01080997 8.96730366 -0.01704993 10.20803386 -0.02347898 C13.55276012 -0.03669153 16.89659038 -0.03191224 20.24126256 -0.01953411 C23.84826304 -0.0104973 27.45518425 -0.02444736 31.06216908 -0.0354538 C38.13268138 -0.05326536 45.20302406 -0.04938533 52.27354308 -0.03780323 C58.02655823 -0.02877024 63.77952584 -0.02754436 69.53254604 -0.0318985 C70.35137808 -0.03251143 71.17021012 -0.03312436 72.01385525 -0.03375587 C73.6774607 -0.03503481 75.34106613 -0.03633166 77.00467155 -0.03764623 C92.61919458 -0.04906214 108.23362382 -0.03592736 123.84813146 -0.01444477 C137.21950218 0.0033837 150.5907338 0.00035927 163.96210194 -0.01811981 C179.50053296 -0.03958383 195.03888138 -0.04791769 210.57732517 -0.03567076 C212.23879038 -0.03439665 213.90025561 -0.03313916 215.56172085 -0.0318985 C216.78777389 -0.03097285 216.78777389 -0.03097285 218.03859567 -0.03002849 C223.77194972 -0.02658888 229.50525104 -0.03237475 235.23859692 -0.04181671 C242.24509542 -0.05310159 249.25141497 -0.04986352 256.25789329 -0.02869374 C259.82662168 -0.01826298 263.39505307 -0.01392224 266.9637785 -0.02729034 C302.02437448 -0.1477396 302.02437448 -0.1477396 317.35443592 8.31586456 C318.01072987 8.66205841 318.66702381 9.00825226 319.34320545 9.36493683 C341.50101057 21.2945944 356.82338251 39.74319833 364.35443592 63.69086456 C366.14277183 69.93801108 367.06580554 75.62935262 367.06410694 82.13417816 C367.06778363 82.89486908 367.07146032 83.65555999 367.07524842 84.43930215 C367.086248 86.98450759 367.09012285 89.52967215 367.09393787 92.07489777 C367.10020563 93.90186949 367.10685271 95.72883995 367.11385059 97.55580902 C367.13486669 103.55524564 367.1452548 109.55468242 367.15521717 115.55414581 C367.15926648 117.62441458 367.16338345 119.69468321 367.16756725 121.76495171 C367.18661826 131.49861795 367.20084612 141.23227664 367.20917922 150.96595794 C367.21893358 162.17292763 367.24520635 173.37969886 367.28568012 184.58659869 C367.31593892 193.26543567 367.33065756 201.94421609 367.33396024 210.62310475 C367.33630075 215.79805165 367.34512946 220.97278654 367.37042141 226.14767647 C367.39387671 231.02576569 367.39786592 235.90350597 367.38766003 240.78163719 C367.38716867 242.5600336 367.39336906 244.33844821 367.40721607 246.11679077 C367.51221672 260.41648599 366.04591898 274.14449204 359.04193592 286.94086456 C358.69171375 287.60569855 358.34149158 288.27053253 357.98065662 288.955513 C356.98397149 290.81988172 355.96008369 292.66467684 354.91693592 294.50336456 C354.43353748 295.35543488 353.95013905 296.20750519 353.45209217 297.08539581 C341.00377004 317.1109575 320.49449122 329.86693679 297.91693592 335.50336456 C294.26767789 336.34708017 290.90296386 336.63087878 287.15913773 336.63758564 C285.42362425 336.64427241 285.42362425 336.64427241 283.65304989 336.65109426 C282.38632963 336.6509099 281.11960938 336.65072553 279.81450367 336.65053558 C278.45185398 336.65383647 277.08920527 336.65756251 275.72655779 336.66167706 C271.98305613 336.67167862 268.23957051 336.67541084 264.49605739 336.67806637 C260.45853266 336.6819746 256.42102056 336.6915522 252.38350391 336.70027924 C242.63688147 336.72002322 232.89025802 336.73010469 223.14362058 336.73900703 C218.55516021 336.74339105 213.966701 336.74875735 209.37824154 336.7539959 C194.13001558 336.77100185 178.88179035 336.78549854 163.63355637 336.79274464 C159.67845566 336.79465454 155.72335496 336.79657488 151.76825428 336.79853058 C150.78522815 336.79901432 149.80220203 336.79949806 148.78938723 336.79999646 C132.8459173 336.80830639 116.90252216 336.83366234 100.95908492 336.86611126 C84.59632624 336.89914283 68.23360564 336.91718963 51.87081343 336.92038888 C42.68105652 336.92255699 33.49140885 336.93135021 24.30168438 336.95685005 C16.48020129 336.97850333 8.65885401 336.98663387 0.83734434 336.97688327 C-3.15509247 336.97232364 -7.14724874 336.97432081 -11.13964748 336.99364471 C-14.79193628 337.01117046 -18.44373767 337.01036598 -22.09603088 336.99474742 C-24.04834949 336.99121887 -26.00067259 337.00747599 -27.95292145 337.02435189 C-29.10732269 337.015771 -30.26172393 337.00719011 -31.45110703 336.99834919 C-32.94845567 336.9998144 -32.94845567 336.9998144 -34.47605377 337.00130922 C-37.80314832 336.3658269 -38.99076445 335.10947511 -41.08306408 332.50336456 C-41.61431408 330.50336456 -41.61431408 330.50336456 -41.58306408 328.50336456 C-41.59337658 327.84336456 -41.60368908 327.18336456 -41.61431408 326.50336456 C-40.84001797 323.58836746 -39.3873858 322.40986683 -37.08306408 320.50336456 C-34.5720675 320.00245988 -34.5720675 320.00245988 -31.68485928 320.0011425 C-30.03135916 319.98582121 -30.03135916 319.98582121 -28.344455 319.97019041 C-26.52815701 319.98387739 -26.52815701 319.98387739 -24.67516613 319.99784088 C-23.38855139 319.99175076 -22.10193664 319.98566064 -20.77633357 319.97938597 C-17.20182135 319.96296982 -13.62773101 319.97144265 -10.0532186 319.98387718 C-6.19879184 319.99292289 -2.34444236 319.97891727 1.50996876 319.96761322 C8.19265405 319.95109497 14.87521968 319.94898282 21.5579195 319.95637894 C31.23741694 319.96689505 40.91676805 319.95350334 50.59624603 319.93391438 C66.32309756 319.90255308 82.04991821 319.88756754 97.7767992 319.88422394 C98.71836511 319.88401995 99.65993102 319.88381596 100.63002923 319.88360579 C101.57270582 319.88340242 102.51538241 319.88319906 103.48662496 319.88298953 C116.82196118 319.88007554 130.15728782 319.87328473 143.49261951 319.861763 C144.42939977 319.86095771 145.36618002 319.86015241 146.33134755 319.85932271 C161.98449404 319.84553852 177.63762362 319.82372386 193.29075456 319.79789317 C202.93683124 319.78249256 212.58285242 319.77522793 222.22894117 319.77868809 C228.85090248 319.78073782 235.4728363 319.7760249 242.09479049 319.76614474 C245.9083762 319.76074419 249.72189056 319.75858322 253.53547573 319.76531792 C282.67790048 319.81302843 307.32911959 319.07190116 329.66693592 298.31586456 C347.27575117 279.63886751 350.24999344 256.99264522 350.17572498 232.25336456 C350.17844455 230.70062853 350.18201082 229.1478938 350.1863451 227.59516144 C350.19535679 223.42984519 350.1919719 219.26462953 350.18558693 215.09931183 C350.18046807 210.70795196 350.18523453 206.31659982 350.18835926 201.92523956 C350.19198195 194.55543242 350.18724465 187.18566557 350.17767811 179.81586456 C350.16679686 171.33615642 350.17032364 162.8565445 350.18133092 154.37683868 C350.19045246 147.05232682 350.19166543 139.72784366 350.18645358 132.40332794 C350.18336048 128.0479856 350.18285031 123.69268826 350.18952656 119.33734894 C350.19537079 115.23972901 350.19117605 111.14223127 350.17973804 107.04462433 C350.17712881 105.55488028 350.17779111 104.06512567 350.18226337 102.57538605 C350.2486156 78.19593534 346.51895543 57.21292843 329.29193592 38.85102081 C311.60793607 21.37061964 290.76698244 17.33262582 266.71905994 17.37206268 C265.55190024 17.36994697 264.38474053 17.36783126 263.18221235 17.36565143 C259.97898951 17.36073568 256.77580078 17.36014587 253.57257557 17.36139214 C250.10437045 17.3616092 246.63617431 17.35601351 243.16797352 17.3509903 C237.17024715 17.34291371 231.17252498 17.3379464 225.1747942 17.33469963 C215.69612322 17.32918147 206.21748776 17.31226529 196.73883533 17.29335785 C193.49120813 17.28700298 190.24358084 17.28069439 186.99595356 17.27438068 C186.1846249 17.27279692 185.37329624 17.27121316 184.53738186 17.2695814 C175.32275657 17.25168066 166.10812883 17.23543344 156.89349842 17.22040558 C155.63124942 17.21834177 155.63124942 17.21834177 154.34350044 17.21623627 C140.67673042 17.1942589 127.0099697 17.18353646 113.34318513 17.17603483 C99.29895017 17.16797074 85.25479471 17.14471113 71.21060514 17.10808116 C62.55277608 17.0860456 53.89511038 17.07639465 45.23725468 17.0825815 C39.31296279 17.08575015 33.38881091 17.07446552 27.46456236 17.05168708 C24.04523363 17.0389933 20.62621674 17.03288078 17.2068758 17.04410362 C13.50391101 17.05292279 9.80183499 17.03741016 6.09894276 17.01561737 C5.01375024 17.02405991 3.92855773 17.03250244 2.81048059 17.04120082 C-4.44219298 16.96184227 -4.44219298 16.96184227 -7.74873638 14.59634876 C-9.18529707 12.34300512 -9.6245148 11.15621068 -9.58306408 8.50336456 C-9.59337658 7.84336456 -9.60368908 7.18336456 -9.61431408 6.50336456 C-8.29734579 1.5453663 -4.77772677 0.00348039 0 0 Z " fill="#E6E9ED" transform="translate(113.08306407928467,87.49663543701172)"/>
<path d="M0 0 C0.78559909 -0.00623996 1.57119819 -0.01247993 2.38060331 -0.01890898 C5.01661296 -0.03487968 7.65170301 -0.02221835 10.28771973 -0.00964355 C12.1770227 -0.01506357 14.06632145 -0.02218556 15.95561218 -0.03088379 C21.09508896 -0.04915426 26.23424525 -0.04202897 31.3737278 -0.02936745 C36.76559941 -0.01923537 42.1574437 -0.02863591 47.54931641 -0.03491211 C56.6218354 -0.04219789 65.69422438 -0.03258683 74.76672363 -0.0135498 C85.21158493 0.00811581 95.65613262 0.00124675 106.100986 -0.02085543 C115.09071618 -0.03910878 124.08035278 -0.04151641 133.07009554 -0.03110075 C138.42847083 -0.02490653 143.78669978 -0.02391457 149.14506531 -0.0372467 C154.20130571 -0.04894592 159.25715037 -0.04052731 164.31334877 -0.01766968 C166.15293539 -0.01245216 167.99255626 -0.01377418 169.83212852 -0.02272034 C186.0912172 -0.09439352 202.48583771 1.70084054 217.56311035 8.19543457 C218.38303467 8.53792236 219.20295898 8.88041016 220.04772949 9.23327637 C233.41714536 14.98794364 244.54382346 22.7172364 255.25061035 32.50793457 C256.0498291 33.22465332 256.84904785 33.94137207 257.67248535 34.67980957 C268.99959445 45.36424581 276.97087678 58.38038755 283.25061035 72.50793457 C283.97377441 74.1070166 283.97377441 74.1070166 284.71154785 75.73840332 C291.22258634 91.30570443 292.8516778 107.29158578 292.76818848 123.98840332 C292.77362735 125.85198509 292.78075977 127.71556254 292.78942871 129.57913208 C292.80745546 134.57923326 292.80068116 139.57899935 292.78791237 144.57910538 C292.7776763 149.8499049 292.78720712 155.12067865 292.79345703 160.39147949 C292.80070291 169.23731557 292.79122659 178.08301739 292.77209473 186.92883301 C292.75033198 197.10762004 292.75738553 207.28608641 292.77940035 217.46486568 C292.7976421 226.25615878 292.80007006 235.04735621 292.78964567 243.83866215 C292.78345868 249.06655686 292.78244115 254.29430163 292.79579163 259.52218628 C292.80747829 264.44073626 292.79909448 269.35887902 292.7762146 274.27738571 C292.77099509 276.06580306 292.77232268 277.85425562 292.78126526 279.64265823 C292.85310068 295.48860953 290.82123136 311.06236745 284.56311035 325.75793457 C284.22062256 326.58237061 283.87813477 327.40680664 283.52526855 328.25622559 C277.78890691 341.65577471 270.05446238 352.78676306 260.25061035 363.50793457 C259.5338916 364.30715332 258.81717285 365.10637207 258.07873535 365.92980957 C247.39429911 377.25691866 234.37815737 385.22820099 220.25061035 391.50793457 C219.18455566 391.99004395 218.11850098 392.47215332 217.0201416 392.96887207 C201.76151236 399.35080825 186.01057456 401.11192572 169.63366699 401.0255127 C167.86397227 401.03095228 166.09428208 401.03808509 164.32460022 401.04675293 C159.58582215 401.06475126 154.84739821 401.05802308 150.10861516 401.04523659 C145.12708382 401.03500936 140.14557995 401.04452673 135.16404724 401.05078125 C126.82020688 401.0580195 118.47650908 401.04856046 110.13269043 401.02941895 C100.48869054 401.0075502 90.84502764 401.01478903 81.20103556 401.03672457 C72.89404764 401.05486042 64.5871612 401.05744901 56.28015989 401.04696989 C51.32940249 401.04073871 46.37880388 401.03989123 41.42805672 401.05311584 C36.78778502 401.06465102 32.14795097 401.05669173 27.50772667 401.03353882 C25.80492505 401.02824381 24.10208668 401.02977902 22.39929962 401.03858948 C20.07812344 401.0494951 17.75835704 401.03584495 15.43727112 401.01586914 C14.13825395 401.01436104 12.83923677 401.01285294 11.50085545 401.01129913 C7.71278862 400.42464227 6.53374545 399.5250247 4.25061035 396.50793457 C3.71936035 394.50793457 3.71936035 394.50793457 3.75061035 392.50793457 C3.74029785 391.84793457 3.72998535 391.18793457 3.71936035 390.50793457 C4.50507162 387.54996275 5.87434721 386.41123871 8.25061035 384.50793457 C11.26659489 384.00571251 11.26659489 384.00571251 14.86781311 384.00241089 C15.5316112 383.99632077 16.19540929 383.99023065 16.87932247 383.98395598 C19.10313245 383.96834397 21.32586707 383.98114883 23.54968262 383.99377441 C25.14504676 383.98831345 26.74040566 383.98107194 28.33575439 383.97218323 C31.77396614 383.95683067 35.21187939 383.95405105 38.65011787 383.96094894 C44.10397571 383.97174869 49.55752335 383.95433155 55.01133728 383.93313599 C63.65841234 383.90284199 72.30539564 383.89118003 80.95251936 383.88755953 C96.38011846 383.88093486 111.80765126 383.8515403 127.23517269 383.80246317 C132.63799114 383.7861162 138.04067749 383.78080185 143.44351786 383.78378594 C179.55500837 383.7922211 211.32342312 382.01435565 240.25061035 357.50793457 C241.2251416 356.73578613 242.19967285 355.9636377 243.20373535 355.16809082 C246.44893035 352.45741064 249.04189761 349.40543967 251.62561035 346.07043457 C252.33560181 345.15463623 252.33560181 345.15463623 253.05993652 344.22033691 C268.62880677 323.70216044 274.7273213 301.37942954 274.65466309 275.93054199 C274.66037871 274.10386236 274.66734754 272.2771863 274.67546082 270.45051575 C274.69327729 265.52882041 274.69224549 260.60730448 274.68651843 255.68558669 C274.68340931 251.55834358 274.68953819 247.43113408 274.69555718 243.30389577 C274.70956351 233.55701976 274.70807411 223.81023146 274.69665527 214.06335449 C274.6851825 204.04993916 274.69924459 194.03679194 274.72605175 184.02341193 C274.74829449 175.38767222 274.75482676 166.75201614 274.74897534 158.11624986 C274.74562445 152.97552299 274.74789517 147.83496781 274.76522636 142.69426537 C274.78083049 137.85541728 274.77659259 133.0169625 274.75792122 128.1781292 C274.75427203 126.41628335 274.75723464 124.65440747 274.76780701 122.89258957 C274.9135279 96.57157152 266.53455967 74.22185134 250.25061035 53.50793457 C249.46686035 52.45605957 248.68311035 51.40418457 247.87561035 50.32043457 C231.10693302 32.35399457 207.24824597 20.64594181 182.8548584 18.37936401 C181.9883475 18.29650221 181.12183661 18.21364041 180.2290678 18.12826765 C171.32150886 17.33478534 162.45671907 17.22877376 153.5201416 17.25256348 C151.75030355 17.24980295 149.98046675 17.2461167 148.21063232 17.24159241 C144.44807247 17.23358006 140.68557165 17.23128609 136.92300415 17.23353958 C130.97218081 17.23640559 125.02147297 17.22190565 119.07067871 17.20455933 C102.16648004 17.15782366 85.26229283 17.13355823 68.35803223 17.1270752 C58.9851207 17.12332921 49.61234348 17.10535537 40.23948956 17.07198083 C34.32290089 17.05176954 28.40665849 17.04939252 22.49004936 17.06026101 C18.82309191 17.06286202 15.15633808 17.04889774 11.48943329 17.03017998 C9.78824352 17.024846 8.08701654 17.0263753 6.38584137 17.03521538 C4.06691851 17.04629699 1.74937975 17.03295447 -0.56945801 17.01345825 C-1.86717636 17.01236872 -3.16489471 17.01127918 -4.50193787 17.01015663 C-8.28863277 16.42454002 -9.46688973 15.52360178 -11.74938965 12.50793457 C-12.28063965 10.50793457 -12.28063965 10.50793457 -12.24938965 8.50793457 C-12.2648584 7.51793457 -12.2648584 7.51793457 -12.28063965 6.50793457 C-10.61167174 0.22476127 -5.61489047 -0.06830955 0 0 Z " fill="#E5E8ED" transform="translate(219.7493896484375,55.4920654296875)"/>
<path d="M0 0 C23.76 0 47.52 0 72 0 C72 42.57 72 85.14 72 129 C48.24 129 24.48 129 0 129 C0 86.43 0 43.86 0 0 Z " fill="#E9C6BB" transform="translate(8,216)"/>
<path d="M0 0 C1.01288086 -0.00700928 2.02576172 -0.01401855 3.06933594 -0.02124023 C6.38025226 -0.03868634 9.69029741 -0.02724759 13.0012207 -0.01367188 C15.32046165 -0.01637 17.6397015 -0.02025508 19.9589386 -0.02526855 C24.80297693 -0.03114494 29.64671893 -0.02265811 34.49072266 -0.00390625 C40.68788229 0.01892013 46.88435029 0.00572448 53.08148479 -0.01819611 C57.86427494 -0.03267151 62.64690189 -0.02804066 67.42969704 -0.01768494 C69.71456803 -0.01502448 71.99945403 -0.01826333 74.28430748 -0.02760315 C77.47899876 -0.03780141 80.67257867 -0.02222248 83.8671875 0 C84.80297134 -0.00809692 85.73875519 -0.01619385 86.70289612 -0.02453613 C93.78225652 0.0663487 98.92987966 1.83473386 104.4465332 6.30664062 C104.97633789 6.9125 105.50614258 7.51835937 106.05200195 8.14257812 C106.59469727 8.73296875 107.13739258 9.32335937 107.6965332 9.93164062 C114.94009472 22.07148296 112.23950195 34.50835984 112.23950195 48.51757812 C59.10950195 48.51757812 5.97950195 48.51757812 -48.76049805 48.51757812 C-48.76049805 33.77249702 -44.28211591 23.54888973 -34.2097168 12.81054688 C-24.78187576 3.984163 -12.74377022 -0.11098645 0 0 Z " fill="#D94352" transform="translate(272.760498046875,127.482421875)"/>
<path d="M0 0 C13.2 0 26.4 0 40 0 C40 36.96 40 73.92 40 112 C26.8 112 13.6 112 0 112 C0 75.04 0 38.08 0 0 Z " fill="#656C77" transform="translate(104,208)"/>
<path d="M0 0 C0.65396381 -0.00623996 1.30792763 -0.01247993 1.98170853 -0.01890898 C4.17144147 -0.03485478 6.36006364 -0.02222988 8.54980469 -0.00964355 C10.12024586 -0.01506402 11.69068195 -0.02218626 13.2611084 -0.03088379 C17.52559358 -0.04912925 21.78969196 -0.0420447 26.05418396 -0.02936745 C30.51529998 -0.01924606 34.9763827 -0.02863072 39.4375 -0.03491211 C46.92942252 -0.04219104 54.42118735 -0.03259441 61.91308594 -0.0135498 C70.57692221 0.00821946 79.24038198 0.00116826 87.90420914 -0.02085543 C95.34041697 -0.03900247 102.7765114 -0.04157117 110.21273422 -0.03110075 C114.65510989 -0.02486197 119.09730853 -0.02404068 123.53967285 -0.0372467 C127.71602519 -0.04879453 131.89189172 -0.04079938 136.06819153 -0.01766968 C137.6016611 -0.01237682 139.1351715 -0.01390626 140.66862488 -0.02272034 C142.76075646 -0.03363768 144.8513275 -0.01996166 146.94335938 0 C148.11437195 0.0015081 149.28538452 0.0030162 150.49188232 0.00457001 C154.08917438 0.61224534 155.26270263 1.66274731 157.47167969 4.50793457 C158.00292969 6.50793457 158.00292969 6.50793457 157.97167969 8.50793457 C157.98714844 9.49793457 157.98714844 9.49793457 158.00292969 10.50793457 C157.21810175 13.46258094 155.84242519 14.60445759 153.47167969 16.50793457 C150.49188232 17.01129913 150.49188232 17.01129913 146.94335938 17.01586914 C146.28939556 17.0221091 145.63543175 17.02834907 144.96165085 17.03477812 C142.7719179 17.05072392 140.58329574 17.03809902 138.39355469 17.0255127 C136.82311351 17.03093316 135.25267742 17.0380554 133.68225098 17.04675293 C129.4177658 17.0649984 125.15366741 17.05791384 120.88917542 17.04523659 C116.4280594 17.0351152 111.96697668 17.04449987 107.50585938 17.05078125 C100.01393686 17.05806018 92.52217202 17.04846355 85.03027344 17.02941895 C76.36643716 17.00764968 67.70297739 17.01470089 59.03915024 17.03672457 C51.60294241 17.05487161 44.16684797 17.05744031 36.73062515 17.04696989 C32.28824949 17.04073111 27.84605084 17.03990982 23.40368652 17.05311584 C19.22733419 17.06466367 15.05146765 17.05666852 10.87516785 17.03353882 C9.34169827 17.02824596 7.80818787 17.0297754 6.2747345 17.03858948 C4.18260291 17.04950682 2.09203188 17.0358308 0 17.01586914 C-1.17101257 17.01436104 -2.34202515 17.01285294 -3.54852295 17.01129913 C-7.14581501 16.4036238 -8.31934325 15.35312183 -10.52832031 12.50793457 C-11.05957031 10.50793457 -11.05957031 10.50793457 -11.02832031 8.50793457 C-11.04378906 7.51793457 -11.04378906 7.51793457 -11.05957031 6.50793457 C-9.52954491 0.74783892 -5.33324865 0.00686849 0 0 Z " fill="#E6E9ED" transform="translate(42.5283203125,127.4920654296875)"/>
<path d="M0 0 C1.00853027 -0.00700928 2.01706055 -0.01401855 3.05615234 -0.02124023 C6.39188114 -0.03885406 9.72676248 -0.02718497 13.0625 -0.01367188 C15.37890791 -0.0163658 17.69531472 -0.02024739 20.01171875 -0.02526855 C24.86729698 -0.03116822 29.72258096 -0.02258526 34.578125 -0.00390625 C40.80614646 0.01888316 47.03347845 0.00576265 53.26147461 -0.01819611 C58.04497485 -0.0326412 62.82831127 -0.02805393 67.61181641 -0.01768494 C69.90836671 -0.0150141 72.20493183 -0.01829988 74.50146484 -0.02760315 C77.7097114 -0.03774714 80.91683706 -0.02229671 84.125 0 C85.55271729 -0.01214539 85.55271729 -0.01214539 87.00927734 -0.02453613 C93.43785991 0.0583522 93.43785991 0.0583522 96.625 2.40148926 C98.35746784 4.95178901 98.9887631 6.42062852 99.0625 9.51757812 C96.78539157 15.15613234 96.78539157 15.15613234 94.0625 16.51757812 C92.67795823 16.61753606 91.28878868 16.65694263 89.90066528 16.66474915 C89.02862457 16.67190445 88.15658386 16.67905975 87.25811768 16.68643188 C86.2991156 16.68912079 85.34011353 16.69180969 84.35205078 16.69458008 C82.83969345 16.70443687 82.83969345 16.70443687 81.29678345 16.7144928 C77.95045911 16.7342518 74.60417966 16.7458931 71.2578125 16.75585938 C70.11725277 16.7599349 68.97669304 16.76401043 67.80157089 16.76820946 C61.76696706 16.78907951 55.73238604 16.80337821 49.69775391 16.81274414 C43.45405888 16.82382137 37.210719 16.85823404 30.96714973 16.89791584 C26.17511313 16.92401428 21.38316208 16.93242987 16.59106064 16.93602562 C14.28890454 16.9409077 11.98675266 16.95256743 9.68466568 16.97106361 C6.46673362 16.99531463 3.24973303 16.99451571 0.03173828 16.98754883 C-0.92321533 17.00035889 -1.87816895 17.01316895 -2.86206055 17.02636719 C-9.31499623 16.97531443 -9.31499623 16.97531443 -12.52737427 14.61320496 C-14.04925393 12.35149751 -14.47970772 11.21887234 -14.4375 8.51757812 C-14.45296875 7.52757812 -14.45296875 7.52757812 -14.46875 6.51757812 C-12.53367962 -0.76739273 -6.18858895 -0.05264544 0 0 Z " fill="#E5E8ED" transform="translate(13.9375,375.482421875)"/>
<path d="M0 0 C0.93050171 -0.00700928 1.86100342 -0.01401855 2.81970215 -0.02124023 C5.89572993 -0.03884649 8.97083785 -0.02718794 12.046875 -0.01367188 C14.18392107 -0.01636603 16.32096594 -0.0202478 18.45800781 -0.02526855 C22.93696767 -0.03116718 27.41560847 -0.02258871 31.89453125 -0.00390625 C37.63829952 0.01888325 43.3813202 0.00576216 49.12506104 -0.01819611 C53.53798057 -0.03264409 57.9507226 -0.02805263 62.36364746 -0.01768494 C64.48156828 -0.0150149 66.59950517 -0.01829712 68.71740723 -0.02760315 C71.67662295 -0.03775205 74.63462479 -0.02229048 77.59375 0 C78.47075562 -0.00809692 79.34776123 -0.01619385 80.25134277 -0.02453613 C86.18484028 0.05834635 86.18484028 0.05834635 89.33886719 2.42492676 C90.91627877 4.68895613 91.33954845 5.78647741 91.296875 8.51757812 C91.31234375 9.50757813 91.31234375 9.50757813 91.328125 10.51757812 C90.51456318 13.58039909 89.34180405 14.60802586 86.796875 16.51757812 C83.73403347 17.12162149 80.70727013 17.06390172 77.59375 17.03515625 C76.66324829 17.04216553 75.73274658 17.0491748 74.77404785 17.05639648 C71.69802007 17.07400274 68.62291215 17.06234419 65.546875 17.04882812 C63.40982893 17.05152228 61.27278406 17.05540405 59.13574219 17.0604248 C54.65678233 17.06632343 50.17814153 17.05774496 45.69921875 17.0390625 C39.95545048 17.016273 34.2124298 17.02939409 28.46868896 17.05335236 C24.05576943 17.06780034 19.6430274 17.06320888 15.23010254 17.05284119 C13.11218172 17.05017115 10.99424483 17.05345337 8.87634277 17.0627594 C5.91712705 17.0729083 2.95912521 17.05744673 0 17.03515625 C-0.87700562 17.04325317 -1.75401123 17.0513501 -2.65759277 17.05969238 C-8.59109028 16.9768099 -8.59109028 16.9768099 -11.74511719 14.61022949 C-13.32252877 12.34620012 -13.74579845 11.24867884 -13.703125 8.51757812 C-13.71859375 7.52757812 -13.71859375 7.52757812 -13.734375 6.51757812 C-11.86960654 -0.50272668 -6.00604586 -0.05545061 0 0 Z " fill="#E5E8ED" transform="translate(61.203125,167.482421875)"/>
<path d="M0 0 C13.2 0 26.4 0 40 0 C40 10.56 40 21.12 40 32 C26.8 32 13.6 32 0 32 C0 21.44 0 10.88 0 0 Z " fill="#EC5464" transform="translate(104,320)"/>
<path d="M0 0 C1.051875 -0.00515625 2.10375 -0.0103125 3.1875 -0.015625 C4.280625 -0.00015625 5.37375 0.0153125 6.5 0.03125 C8.1396875 0.00804687 8.1396875 0.00804687 9.8125 -0.015625 C10.864375 -0.01046875 11.91625 -0.0053125 13 0 C14.43859375 0.00676758 14.43859375 0.00676758 15.90625 0.01367188 C19.2129244 0.67351278 20.41068231 1.94099187 22.5 4.53125 C23.42866509 8.27515967 23.00374653 11.59572074 21.1875 14.96875 C17.22427879 18.63839927 11.68741155 17.75244538 6.625 17.78125 C5.72652344 17.801875 4.82804688 17.8225 3.90234375 17.84375 C-1.02854522 17.87288376 -4.53981044 17.83408016 -8.5 14.53125 C-10.06471233 11.40182535 -10.19701958 7.92042777 -9.5 4.53125 C-6.5439887 0.84920836 -4.682269 0.0220268 0 0 Z " fill="#E6E9ED" transform="translate(129.5,375.46875)"/>
<path d="M0 0 C1.051875 -0.00515625 2.10375 -0.0103125 3.1875 -0.015625 C4.280625 -0.00015625 5.37375 0.0153125 6.5 0.03125 C8.1396875 0.00804687 8.1396875 0.00804687 9.8125 -0.015625 C10.864375 -0.01046875 11.91625 -0.0053125 13 0 C14.43859375 0.00676758 14.43859375 0.00676758 15.90625 0.01367188 C19.21298564 0.673525 20.40908706 1.94238555 22.5 4.53125 C23.03125 6.53125 23.03125 6.53125 23 8.53125 C23.0103125 9.19125 23.020625 9.85125 23.03125 10.53125 C22.2561666 13.44921104 20.80895833 14.6243588 18.5 16.53125 C15.90625 17.04882812 15.90625 17.04882812 13 17.0625 C11.948125 17.06765625 10.89625 17.0728125 9.8125 17.078125 C8.719375 17.06265625 7.62625 17.0471875 6.5 17.03125 C4.8603125 17.05445313 4.8603125 17.05445313 3.1875 17.078125 C2.135625 17.07296875 1.08375 17.0678125 0 17.0625 C-0.9590625 17.05798828 -1.918125 17.05347656 -2.90625 17.04882812 C-6.21298564 16.388975 -7.40908706 15.12011445 -9.5 12.53125 C-10.03125 10.53125 -10.03125 10.53125 -10 8.53125 C-10.01546875 7.54125 -10.01546875 7.54125 -10.03125 6.53125 C-8.65240655 1.34030994 -4.94094259 0.02324368 0 0 Z " fill="#E6E9ED" transform="translate(9.5,167.46875)"/>
</svg>
