<?xml version="1.0" encoding="UTF-8"?>
<svg version="1.1" xmlns="http://www.w3.org/2000/svg" width="512" height="512">
<path d="M0 0 C3.81218819 0.01709136 7.62374826 0.00693421 11.43591499 -0.01031494 C41.87455519 -0.12749389 41.87455519 -0.12749389 56.578125 3.39111328 C57.55813477 3.62072754 58.53814453 3.8503418 59.54785156 4.08691406 C61.96168151 4.702835 64.32820768 5.39036463 66.703125 6.14111328 C67.94594238 6.52626099 67.94594238 6.52626099 69.21386719 6.91918945 C87.90078737 12.88214623 105.35123714 21.99944022 120.578125 34.39111328 C121.14273437 34.8488916 121.70734375 35.30666992 122.2890625 35.77832031 C150.5849572 58.87685226 168.51678457 89.21937011 177.578125 124.39111328 C177.75891602 125.07206055 177.93970703 125.75300781 178.12597656 126.45458984 C187.33311001 162.8987304 177.61424122 199.20258853 165.5980835 233.4788208 C164.50797095 236.59142449 163.42276197 239.70570829 162.33837891 242.8203125 C156.46163502 259.69255541 150.53013215 276.54529217 144.578125 293.39111328 C144.19382324 294.47894104 143.80952148 295.5667688 143.41357422 296.68756104 C138.49059625 310.62041168 133.55375725 324.54833357 128.61273193 338.47479248 C125.82527937 346.33198504 123.03968058 354.18983402 120.25515747 362.04806519 C119.20907972 364.99931353 118.16206249 367.95022742 117.11499023 370.90112305 C113.22391107 381.87447708 109.36373273 392.85809006 105.53125 403.85205078 C104.25366597 407.50946068 102.9756225 411.16670973 101.69744873 414.82391357 C100.88038828 417.16624437 100.06557739 419.50936132 99.25323486 421.85333252 C89.53796593 449.88499599 80.67729534 475.1734207 52.86328125 489.82080078 C42.0899426 495.04517448 31.58443974 496.85601388 19.68359375 496.82470703 C18.49316971 496.82994888 17.30274567 496.83519073 16.07624817 496.84059143 C13.57452163 496.84697305 11.07276493 496.84572518 8.57104492 496.8371582 C4.7857403 496.82865845 1.00195269 496.85745127 -2.78320312 496.88916016 C-15.19074148 496.9261015 -26.73298123 496.91041563 -38.421875 492.39111328 C-39.58046021 491.94505737 -39.58046021 491.94505737 -40.76245117 491.48999023 C-59.83944702 483.28864297 -72.71418854 467.23243063 -80.421875 448.39111328 C-83.75497602 439.6543036 -86.75094593 430.79341007 -89.796875 421.95361328 C-90.67453597 419.42618822 -91.55291391 416.89902781 -92.43261719 414.37231445 C-93.77770221 410.50769118 -95.12238586 406.64293482 -96.46350098 402.77693176 C-100.46576052 391.24147768 -104.52281716 379.72573736 -108.60333252 368.21774292 C-109.91957028 364.5049179 -111.23283612 360.79104463 -112.54574585 357.07704163 C-116.77560271 345.15707415 -121.09888633 333.27933212 -125.421875 321.39111328 C-219.471875 320.89611328 -219.471875 320.89611328 -315.421875 320.39111328 C-315.421875 280.79111328 -315.421875 241.19111328 -315.421875 200.39111328 C-266.581875 200.39111328 -217.741875 200.39111328 -167.421875 200.39111328 C-168.411875 195.77111328 -169.401875 191.15111328 -170.421875 186.39111328 C-171.24825233 181.03520755 -171.59043257 175.77989189 -171.625 170.36767578 C-171.63558945 169.25880508 -171.63558945 169.25880508 -171.64639282 168.12753296 C-171.87340581 137.3912641 -171.87340581 137.3912641 -168.421875 124.39111328 C-168.21788086 123.59930664 -168.01388672 122.8075 -167.80371094 121.99169922 C-158.73493227 87.57786227 -139.9161948 56.15480875 -111.421875 34.39111328 C-110.50019531 33.65376953 -109.57851562 32.91642578 -108.62890625 32.15673828 C-93.40709423 20.24222955 -75.95841614 11.84682911 -57.546875 6.14111328 C-56.80598633 5.90690674 -56.06509766 5.6727002 -55.30175781 5.43139648 C-52.69084391 4.66164608 -50.07232187 4.01210749 -47.421875 3.39111328 C-45.71596191 2.9828833 -45.71596191 2.9828833 -43.97558594 2.56640625 C-29.51701526 -0.51795316 -14.70630033 -0.06654251 0 0 Z " fill="#656C77" transform="translate(323.421875,7.60888671875)"/>
<path d="M0 0 C49.17 0 98.34 0 149 0 C152.37366469 8.99643917 152.37366469 8.99643917 153.44775391 12.09375 C153.69361237 12.80092163 153.93947083 13.50809326 154.19277954 14.23669434 C154.45142792 14.98358521 154.71007629 15.73047607 154.9765625 16.5 C155.56245072 18.18556401 156.14839068 19.87111003 156.734375 21.55664062 C157.04181641 22.44198486 157.34925781 23.3273291 157.66601562 24.23950195 C163.72422907 41.67845803 169.84056531 59.09655414 176 76.5 C176.35040344 77.4914502 176.70080688 78.48290039 177.06182861 79.50439453 C180.92788147 90.44052193 184.82204592 101.362037 188.91845703 112.21447754 C191 117.78410227 191 117.78410227 191 120 C127.97 120 64.94 120 0 120 C0 80.4 0 40.8 0 0 Z " fill="#E9C5BA" transform="translate(8,208)"/>
<path d="M0 0 C15.80554695 12.2777303 26.57942604 28.33724917 30.25 48.25 C32.19803089 68.09368334 27.89508277 86.94276023 15.875 103.0625 C14.69000589 104.47820092 13.48103048 105.87414241 12.25 107.25 C11.59515625 107.99765625 10.9403125 108.7453125 10.265625 109.515625 C-1.47738269 122.11578653 -19.29057007 130.79173951 -36.6328125 131.5859375 C-56.65531387 131.93321432 -74.50454302 126.89067204 -89.75 113.25 C-90.87148438 112.26773438 -90.87148438 112.26773438 -92.015625 111.265625 C-102.11160045 101.8564506 -107.85912561 90.35610321 -111.75 77.25 C-111.99621094 76.445625 -112.24242187 75.64125 -112.49609375 74.8125 C-117.26368165 55.87366806 -112.54204519 36.68910079 -102.95654297 20.13232422 C-99.58742577 14.87617416 -95.22216971 10.56315924 -90.75 6.25 C-90.11707031 5.58613281 -89.48414063 4.92226562 -88.83203125 4.23828125 C-65.53826923 -18.6441119 -25.65960534 -17.8642822 0 0 Z " fill="#EC5565" transform="translate(385.75,108.75)"/>
<path d="M0 0 C1.89321831 0.01510028 3.78644851 0.02877908 5.6796875 0.04101562 C10.2450943 0.07353785 14.8099091 0.12501279 19.375 0.1875 C19.375 0.5175 19.375 0.8475 19.375 1.1875 C18.75794189 1.24695801 18.14088379 1.30641602 17.50512695 1.36767578 C-24.76635041 5.61005859 -65.08565512 22.69712427 -92.625 56.1875 C-93.54345703 57.25677734 -93.54345703 57.25677734 -94.48046875 58.34765625 C-121.60817419 90.78177912 -133.51750415 133.12843683 -130.41845703 174.9765625 C-129.50967236 184.40455928 -127.71941104 193.56077211 -125.08984375 202.65625 C-124.83274124 203.54886032 -124.57563873 204.44147064 -124.31074524 205.36112976 C-120.76878777 217.39414912 -116.5132941 229.1851731 -112.3125 241 C-111.42222369 243.51860776 -110.53244265 246.03738512 -109.64331055 248.55639648 C-107.84013016 253.66207806 -106.03278669 258.76626556 -104.22167969 263.86914062 C-101.85366541 270.5411853 -99.49215069 277.21550832 -97.1328125 283.890625 C-93.31545455 294.6866443 -89.48851853 305.47925311 -85.65960693 316.2711792 C-82.87269603 324.12684493 -80.08746114 331.98310456 -77.30340576 339.83978271 C-76.60285406 341.81674375 -75.90221161 343.79367262 -75.20147705 345.77056885 C-70.61920346 358.69959235 -66.05823508 371.63593601 -61.515625 384.57894897 C-57.93759191 394.77290286 -54.34867304 404.96298709 -50.75341797 415.15087891 C-49.40973379 418.95900151 -48.06989132 422.76842438 -46.73486328 426.57958984 C-45.37011628 430.47405994 -43.99404245 434.36430535 -42.60733032 438.25100708 C-42.13169985 439.58989586 -41.6600888 440.93022179 -41.19320679 442.27218628 C-33.92480474 463.14045394 -22.30972094 478.07008945 -2.6875 488.4375 C5.38104184 492.32158625 13.48906728 494.34920446 22.375 495.1875 C22.375 495.5175 22.375 495.8475 22.375 496.1875 C17.2379296 496.28782587 12.10145318 496.35964084 6.96362305 496.40722656 C5.22296187 496.42710335 3.48236526 496.45421465 1.74194336 496.48925781 C-19.33197448 496.90235277 -37.94256653 492.35473655 -53.54833984 477.38745117 C-69.21518407 461.7393536 -74.9380201 442.24657697 -82 421.75 C-82.87767828 419.22184883 -83.75605425 416.69395499 -84.63574219 414.16650391 C-85.98075134 410.30107603 -87.32542894 406.43553917 -88.66662598 402.56878662 C-93.01132648 390.04605899 -97.43614486 377.55212043 -101.875 365.0625 C-105.91317274 353.69801764 -109.94025618 342.32975467 -113.921875 330.9453125 C-114.24843079 330.01645233 -114.57498657 329.08759216 -114.91143799 328.13058472 C-116.39905618 323.86467035 -117.82283759 319.59778283 -119.09765625 315.26318359 C-120.79444526 309.51306384 -122.77254281 303.8718427 -124.765625 298.21875 C-125.16505814 297.08043228 -125.56449127 295.94211456 -125.97602844 294.76930237 C-127.05128233 291.707034 -128.12863716 288.6455158 -129.20708084 285.58436966 C-130.10345569 283.03869294 -130.99789886 280.49233916 -131.89242268 277.94601154 C-136.28880235 265.43327955 -140.70564183 252.92801509 -145.17578125 240.44140625 C-145.52202545 239.47411591 -145.86826965 238.50682556 -146.2250061 237.51022339 C-147.82579897 233.04150525 -149.43076813 228.57434257 -151.04199219 224.109375 C-153.54967157 217.14301596 -156.01908933 210.20551894 -158.05688477 203.08349609 C-158.63975035 201.03109798 -158.63975035 201.03109798 -159.7109375 198.50390625 C-167.86457125 177.84106517 -166.25591882 145.39629049 -160.625 124.1875 C-160.31900879 122.99979004 -160.31900879 122.99979004 -160.00683594 121.78808594 C-150.93805727 87.37424899 -132.1193198 55.95119547 -103.625 34.1875 C-102.70332031 33.45015625 -101.78164062 32.7128125 -100.83203125 31.953125 C-85.61021923 20.03861626 -68.16154114 11.64321583 -49.75 5.9375 C-49.00911133 5.70329346 -48.26822266 5.46908691 -47.50488281 5.2277832 C-31.75178649 0.58345068 -16.30642824 -0.23017774 0 0 Z " fill="#545C66" transform="translate(315.625,7.8125)"/>
<path d="M0 0 C0.82175217 -0.00554901 1.64350433 -0.01109802 2.49015808 -0.01681519 C5.19911515 -0.02859978 7.90639499 -0.00434938 10.61523438 0.02148438 C12.50183028 0.02319588 14.38842856 0.02312939 16.27502441 0.0213623 C20.22606199 0.02301487 24.17653173 0.04170121 28.12744141 0.07324219 C33.1883391 0.11291954 38.24849319 0.11728702 43.30951691 0.10977936 C47.20435379 0.10670774 51.09902394 0.11883701 54.99382019 0.13591003 C56.85970514 0.14293428 58.72560898 0.14606527 60.59150696 0.1452179 C63.20067401 0.14701848 65.80895517 0.16842221 68.41796875 0.1953125 C69.18694992 0.1923819 69.95593109 0.18945129 70.74821472 0.18643188 C75.22812538 0.25756011 78.15074365 0.83251037 81.70898438 3.61523438 C83.57529353 7.34785268 82.93697343 11.81994222 82.95898438 15.92773438 C82.97960937 16.87841797 83.00023437 17.82910156 83.02148438 18.80859375 C83.07177648 27.80459379 83.07177648 27.80459379 79.70898438 31.61523438 C75.98138797 32.85776651 72.51219557 32.77078604 68.62915039 32.77636719 C67.39455078 32.78381454 67.39455078 32.78381454 66.13500977 32.79141235 C63.41096157 32.80602344 60.68697157 32.81283351 57.96289062 32.81835938 C56.07103982 32.82411081 54.17918903 32.82986855 52.28733826 32.83563232 C48.32038094 32.8461387 44.35344388 32.85198404 40.38647461 32.85546875 C35.30084772 32.86095881 30.21548785 32.88499928 25.1299448 32.9134407 C21.22233799 32.93205228 17.31479576 32.93727185 13.40714836 32.93880463 C11.53203811 32.94183403 9.65692907 32.9498722 7.78186226 32.96298981 C5.16043802 32.98002266 2.53966984 32.97817716 -0.08178711 32.97167969 C-1.24536491 32.98550186 -1.24536491 32.98550186 -2.43244934 32.99960327 C-5.62252211 32.9748031 -7.91360191 32.82080372 -10.74159241 31.28045654 C-14.47275146 27.27044257 -13.58962966 21.37892639 -13.66601562 16.24023438 C-13.70339844 15.2940625 -13.74078125 14.34789062 -13.77929688 13.37304688 C-13.79089844 12.45523437 -13.8025 11.53742188 -13.81445312 10.59179688 C-13.83427246 9.75729004 -13.8540918 8.9227832 -13.87451172 8.06298828 C-12.15784596 0.86161134 -6.4706894 -0.11160525 0 0 Z " fill="#CBD0D8" transform="translate(309.291015625,319.384765625)"/>
</svg>
