<?xml version="1.0" encoding="UTF-8"?>
<svg version="1.1" xmlns="http://www.w3.org/2000/svg" width="512" height="512">
<path d="M0 0 C3.26701612 2.66358727 6.39330111 5.45632415 9.50390625 8.30078125 C10.70273437 9.37585937 10.70273437 9.37585937 11.92578125 10.47265625 C23.25289034 21.15709249 31.22417267 34.17323423 37.50390625 48.30078125 C38.22707031 49.89986328 38.22707031 49.89986328 38.96484375 51.53125 C45.57424241 67.33372134 47.12344028 83.53905149 47.03515625 100.484375 C47.03786348 102.3598704 47.04175599 104.23536441 47.04675293 106.1108551 C47.05259175 110.00934434 47.04427029 113.9074627 47.02539062 117.8059082 C47.00262064 122.74171012 47.01574821 127.67664051 47.03968048 132.61241055 C47.05430608 136.47608208 47.04945661 140.3395554 47.03916931 144.20323372 C47.03654715 146.02044853 47.03960773 147.83768283 47.04908752 149.6548748 C47.11564599 165.99063162 45.3423662 182.46319226 38.81640625 197.61328125 C38.47391846 198.43320557 38.13143066 199.25312988 37.77856445 200.09790039 C32.02389718 213.46731626 24.29460442 224.59399436 14.50390625 235.30078125 C13.7871875 236.1 13.07046875 236.89921875 12.33203125 237.72265625 C5.3529664 245.12151448 -3.69104694 252.90488222 -13.16772461 256.81616211 C-15.50989793 258.15458297 -16.3375822 258.79017514 -17.1463623 261.39546204 C-17.40571842 264.12980931 -17.43906408 266.78873598 -17.3984375 269.53515625 C-17.41072891 270.52831848 -17.42302032 271.52148071 -17.4356842 272.54473877 C-17.46745578 275.71416783 -17.45112472 278.88127867 -17.43359375 282.05078125 C-17.44670008 284.20054249 -17.46293857 286.35028709 -17.48242188 288.5 C-17.52331235 293.76727352 -17.52472574 299.03345163 -17.49609375 304.30078125 C-16.77993896 304.28967819 -16.06378418 304.27857513 -15.32592773 304.26713562 C-8.50276831 304.16601851 -1.679724 304.0903592 5.14399719 304.04172039 C8.65036559 304.01587161 12.15610364 303.98094259 15.66210938 303.92358398 C40.31590982 303.53101838 58.51884591 305.38006799 77.22265625 322.9296875 C105.20822458 352.01742718 94.50390625 395.26473859 94.50390625 432.30078125 C-16.37609375 432.30078125 -127.25609375 432.30078125 -241.49609375 432.30078125 C-241.49609375 340.83105648 -241.49609375 340.83105648 -222.3671875 321.10546875 C-212.17484204 311.51481811 -197.73048574 304.15743169 -183.53417969 304.18725586 C-182.33323669 304.18733139 -181.1322937 304.18740692 -179.8949585 304.18748474 C-177.95728607 304.19522667 -177.95728607 304.19522667 -175.98046875 304.203125 C-174.6409714 304.20499108 -173.30147337 304.20641409 -171.9619751 304.20741272 C-168.44386903 304.2112229 -164.92580454 304.22104034 -161.40771484 304.2321167 C-157.81478436 304.24236308 -154.22184714 304.24691725 -150.62890625 304.25195312 C-143.58461846 304.262664 -136.54035882 304.27972238 -129.49609375 304.30078125 C-129.29193012 298.05543885 -129.18120368 291.81771748 -129.15429688 285.5690918 C-129.13232409 283.44758672 -129.08548926 281.32618024 -129.01269531 279.20581055 C-128.15983302 267.82585888 -128.15983302 267.82585888 -131.84423828 257.49307251 C-135.60239359 254.12818842 -139.9300032 252.33285678 -144.49609375 250.30078125 C-162.55795903 237.24866446 -175.51115484 220.51424182 -184.49609375 200.30078125 C-184.97820312 199.23472656 -185.4603125 198.16867188 -185.95703125 197.0703125 C-192.60378015 181.17854012 -194.11486381 164.90160661 -194.02734375 147.86328125 C-194.03005057 145.96297 -194.03394275 144.06266012 -194.03894043 142.16235352 C-194.04477971 138.21259146 -194.03645523 134.26319546 -194.01757812 130.31347656 C-193.9947921 125.3080784 -194.00794556 120.30353885 -194.03186798 115.298172 C-194.04647853 111.38392939 -194.04165104 107.4698828 -194.03135681 103.55563354 C-194.0287314 101.71247246 -194.03180745 99.86929221 -194.04127502 98.02615356 C-194.10612534 81.86321622 -192.19633534 66.05072854 -185.80859375 51.05078125 C-185.46610596 50.22634521 -185.12361816 49.40190918 -184.77075195 48.55249023 C-179.03439031 35.15294111 -171.29994578 24.02195276 -161.49609375 13.30078125 C-160.779375 12.5015625 -160.06265625 11.70234375 -159.32421875 10.87890625 C-148.63978251 -0.44820284 -135.62364077 -8.41948517 -121.49609375 -14.69921875 C-120.43003906 -15.18132813 -119.36398438 -15.6634375 -118.265625 -16.16015625 C-80.25411123 -32.05850802 -32.33712441 -25.48734406 0 0 Z " fill="#E9C5BA" transform="translate(249.49609375,51.69921875)"/>
<path d="M0 0 C1.07721313 -0.00671722 2.15442627 -0.01343445 3.26428223 -0.02035522 C6.81978998 -0.03932771 10.37510885 -0.04325924 13.93066406 -0.04541016 C16.40920082 -0.05183915 18.88773681 -0.05856759 21.36627197 -0.06558228 C26.5612565 -0.07755358 31.75617453 -0.0812633 36.95117188 -0.08007812 C43.59325039 -0.07987508 50.23488956 -0.10716377 56.87688828 -0.14162254 C61.99686626 -0.163911 67.11674148 -0.16791504 72.236763 -0.16685867 C74.68466924 -0.1692122 77.13257842 -0.17802163 79.58043671 -0.19352341 C83.01225879 -0.21321956 86.44316166 -0.20732999 89.875 -0.1953125 C90.87690369 -0.20655151 91.87880737 -0.21779053 92.91107178 -0.22937012 C101.10104736 -0.15685471 107.64138351 1.89780245 114.44628906 6.47802734 C121.17114855 13.35572455 125.43228324 20.62147042 125.4637146 30.41828918 C125.47650955 32.22860878 125.47650955 32.22860878 125.48956299 34.07550049 C125.48820343 36.04169342 125.48820343 36.04169342 125.48681641 38.04760742 C125.4928058 39.45259456 125.49961229 40.85757842 125.50717163 42.26255798 C125.52479773 46.06848843 125.52952559 49.87432886 125.5308032 53.68029618 C125.53222736 56.06139127 125.53650198 58.44246365 125.54179764 60.82355309 C125.56028716 69.13978903 125.56846966 77.45596098 125.56689453 85.7722168 C125.56569363 93.50894662 125.58678845 101.24539724 125.61838186 108.98205644 C125.64458413 115.63705335 125.65526017 122.29195929 125.65398371 128.94700736 C125.65347521 132.91615003 125.65909612 136.88504449 125.68033981 140.85413551 C125.69978896 144.58974911 125.69980168 148.3248794 125.68530655 152.06051064 C125.68223851 154.07335391 125.69884831 156.08619757 125.71618652 158.09896851 C125.66574541 165.40654097 124.90989537 170.94294675 121.19628906 177.29052734 C120.81801153 177.94365308 120.439734 178.59677881 120.04999352 179.26969624 C116.35906425 185.32549945 110.48151307 188.81552881 104.13378906 191.66552734 C100.40450522 192.45899199 97.00950696 192.32955721 93.19628906 192.29052734 C93.20517151 192.93310486 93.21405396 193.57568237 93.22320557 194.23773193 C93.31164555 200.92093009 93.3720096 207.60396224 93.41601562 214.28759766 C93.4361407 216.782458 93.46344358 219.27727112 93.49804688 221.77197266 C93.54652363 225.35640102 93.56924927 228.94020619 93.58691406 232.52490234 C93.6075592 233.64169373 93.62820435 234.75848511 93.6494751 235.90911865 C93.64977722 236.94989563 93.65007935 237.99067261 93.65039062 239.06298828 C93.65927307 239.97788025 93.66815552 240.89277222 93.67730713 241.83538818 C93.00732883 245.25498937 92.07829684 246.32499452 89.19628906 248.29052734 C86.24843636 248.68508521 83.67451623 248.83785049 80.72753906 248.80810547 C79.44882935 248.81861938 79.44882935 248.81861938 78.14428711 248.8293457 C75.32795587 248.84694303 72.51263043 248.83529694 69.69628906 248.82177734 C67.73860481 248.82447176 65.78092186 248.82835376 63.82324219 248.83337402 C59.720899 248.83927142 55.61890425 248.83069827 51.51660156 248.81201172 C46.25708278 248.7892221 40.99838043 248.80234388 35.7388916 248.82630157 C31.69655196 248.84075297 27.65440601 248.83615657 23.61206055 248.82579041 C21.6727692 248.8231213 19.73346029 248.82639932 17.79418945 248.83570862 C15.08399856 248.84586336 12.37513131 248.83038862 9.66503906 248.80810547 C8.86283936 248.81620239 8.06063965 248.82429932 7.23413086 248.8326416 C3.76799836 248.77982147 1.59142354 248.56000954 -1.30462646 246.5848999 C-3.1040675 243.83082686 -3.28958932 242.33600024 -3.2578125 239.06298828 C-3.25751038 238.0222113 -3.25720825 236.98143433 -3.25689697 235.90911865 C-3.23625183 234.79232727 -3.21560669 233.67553589 -3.19433594 232.52490234 C-3.18867615 231.3763678 -3.18301636 230.22783325 -3.17718506 229.04449463 C-3.15479425 225.3760816 -3.10459035 221.70864518 -3.05371094 218.04052734 C-3.03364955 215.55356228 -3.01539815 213.06658191 -2.99902344 210.57958984 C-2.95492049 204.48290245 -2.88798043 198.38678467 -2.80371094 192.29052734 C-4.07279297 192.30349854 -5.341875 192.31646973 -6.64941406 192.32983398 C-14.53625468 192.41044479 -20.3837132 188.39945949 -26.01464844 183.14990234 C-32.03179231 176.89627684 -35.06024541 170.87778507 -34.97949219 162.07568359 C-34.96273438 161.36283203 -34.94597656 160.64998047 -34.92871094 159.91552734 C-34.9196875 159.17947266 -34.91066406 158.44341797 -34.90136719 157.68505859 C-34.87801238 155.88673854 -34.84214929 154.08858823 -34.80371094 152.29052734 C-36.03089844 152.32275391 -37.25808594 152.35498047 -38.52246094 152.38818359 C-46.47376864 152.37593466 -52.32338089 148.45570555 -58.01464844 143.14990234 C-64.30774443 136.60947944 -67.03621155 130.50482828 -67.09423828 121.27880859 C-67.10095551 120.60482025 -67.10767273 119.93083191 -67.11459351 119.23641968 C-67.13347469 117.02521241 -67.13749208 114.81431003 -67.13964844 112.60302734 C-67.14608138 111.05655801 -67.1528101 109.51008987 -67.15982056 107.96362305 C-67.17176721 104.72913796 -67.17550389 101.49475949 -67.17431641 98.26025391 C-67.17411293 94.12423436 -67.20145545 89.98889972 -67.23586082 85.8530426 C-67.2581375 82.66163006 -67.26215378 79.47038247 -67.26109695 76.27890015 C-67.2634502 74.75431958 -67.27225822 73.22973427 -67.28776169 71.70523071 C-67.30744641 69.57041811 -67.30157669 67.43708453 -67.28955078 65.30224609 C-67.29240082 64.09012451 -67.29525085 62.87800293 -67.29818726 61.62915039 C-66.53506421 56.47666869 -64.0119173 53.41322987 -60.26464844 49.93115234 C-55.29011901 47.57302327 -50.85466768 47.85849525 -45.42871094 48.04052734 C-44.40648437 48.05857422 -43.38425781 48.07662109 -42.33105469 48.09521484 C-39.82096345 48.14213244 -37.31283329 48.20776005 -34.80371094 48.29052734 C-34.8246582 47.61062744 -34.84560547 46.93072754 -34.8671875 46.23022461 C-34.95110989 43.10464687 -35.00261004 39.97930718 -35.05371094 36.85302734 C-35.10398437 35.24911133 -35.10398437 35.24911133 -35.15527344 33.61279297 C-35.27385906 23.91841814 -32.58439638 15.44791754 -25.80371094 8.29052734 C-17.54485728 1.65285607 -10.41454908 -0.00934599 0 0 Z " fill="#DA4453" transform="translate(378.8037109375,187.70947265625)"/>
<path d="M0 0 C3.26701612 2.66358727 6.39330111 5.45632415 9.50390625 8.30078125 C10.70273437 9.37585937 10.70273437 9.37585937 11.92578125 10.47265625 C23.25289034 21.15709249 31.22417267 34.17323423 37.50390625 48.30078125 C38.22707031 49.89986328 38.22707031 49.89986328 38.96484375 51.53125 C46.04019672 68.44777573 47.14005279 85.16326467 46.50390625 103.30078125 C39.57579901 97.63504076 33.36186483 91.27044486 27.06640625 84.92578125 C25.94229158 83.7966417 24.81794451 82.66773347 23.69335938 81.5390625 C20.9608539 78.79562937 18.23151616 76.0490814 15.50390625 73.30078125 C11.50026825 74.58831803 7.81074339 76.07675669 4.04931641 77.96606445 C-6.73123368 83.35376596 -17.94181254 86.95598105 -29.49609375 90.30078125 C-30.39706787 90.56656982 -31.29804199 90.8323584 -32.22631836 91.10620117 C-73.36305811 102.86423717 -119.13950897 95.27822497 -156.49609375 75.17578125 C-157.19734375 74.76070313 -157.89859375 74.345625 -158.62109375 73.91796875 C-160.52126666 73.06800136 -160.52126666 73.06800136 -162.42524719 74.08737183 C-164.4443876 75.27048411 -165.86865535 76.43703295 -167.50463867 78.09814453 C-168.34021553 78.93878952 -168.34021553 78.93878952 -169.19267273 79.79641724 C-169.78135635 80.39856049 -170.37003998 81.00070374 -170.9765625 81.62109375 C-171.59002029 82.23975311 -172.20347809 82.85841248 -172.83552551 83.49581909 C-174.78969895 85.46777683 -176.73703775 87.44630608 -178.68359375 89.42578125 C-180.64173619 91.41149641 -182.60130316 93.39575177 -184.563797 95.37716675 C-185.78406486 96.60974204 -187.00165052 97.84497934 -188.21635437 99.08303833 C-189.62421875 100.50769367 -191.05753672 101.90712468 -192.49609375 103.30078125 C-192.82609375 103.30078125 -193.15609375 103.30078125 -193.49609375 103.30078125 C-194.71014658 68.6862673 -185.01584654 39.02121266 -161.49609375 13.30078125 C-160.779375 12.5015625 -160.06265625 11.70234375 -159.32421875 10.87890625 C-148.63978251 -0.44820284 -135.62364077 -8.41948517 -121.49609375 -14.69921875 C-120.43003906 -15.18132813 -119.36398438 -15.6634375 -118.265625 -16.16015625 C-80.25411123 -32.05850802 -32.33712441 -25.48734406 0 0 Z " fill="#656D78" transform="translate(249.49609375,51.69921875)"/>
<path d="M0 0 C1.07721313 -0.00671722 2.15442627 -0.01343445 3.26428223 -0.02035522 C6.81978998 -0.03932771 10.37510885 -0.04325924 13.93066406 -0.04541016 C16.40920082 -0.05183915 18.88773681 -0.05856759 21.36627197 -0.06558228 C26.5612565 -0.07755358 31.75617453 -0.0812633 36.95117188 -0.08007812 C43.59325039 -0.07987508 50.23488956 -0.10716377 56.87688828 -0.14162254 C61.99686626 -0.163911 67.11674148 -0.16791504 72.236763 -0.16685867 C74.68466924 -0.1692122 77.13257842 -0.17802163 79.58043671 -0.19352341 C83.01225879 -0.21321956 86.44316166 -0.20732999 89.875 -0.1953125 C90.87690369 -0.20655151 91.87880737 -0.21779053 92.91107178 -0.22937012 C101.10104736 -0.15685471 107.64138351 1.89780245 114.44628906 6.47802734 C123.91626657 16.16323161 125.60134685 25.14441943 125.56201172 38.25854492 C125.23581784 57.29599754 118.63441963 73.46953049 105.32910156 87.22021484 C96.41057118 95.54664363 85.93906042 100.35877503 74.19628906 103.29052734 C73.52090088 103.46704834 72.8455127 103.64356934 72.1496582 103.82543945 C67.78032024 104.51350995 63.44898883 104.45329979 59.03222656 104.45849609 C58.04437164 104.46182449 57.05651672 104.46515289 56.03872681 104.46858215 C53.94916244 104.47363817 51.85959001 104.47599089 49.77001953 104.47583008 C46.6033766 104.4780053 43.43708865 104.49614414 40.27050781 104.51513672 C38.23274858 104.51807332 36.1949877 104.52005633 34.15722656 104.52099609 C32.75662491 104.53177437 32.75662491 104.53177437 31.32772827 104.54277039 C13.10947761 104.48076627 -3.00303052 98.30331618 -16.37402344 85.90771484 C-30.16791028 71.36568498 -34.90447506 54.43153831 -35.11621094 34.85302734 C-35.14521484 33.96292969 -35.17421875 33.07283203 -35.20410156 32.15576172 C-35.28935279 23.17815122 -32.0347896 14.86777705 -25.80371094 8.29052734 C-17.54485728 1.65285607 -10.41454908 -0.00934599 0 0 Z " fill="#EC5464" transform="translate(378.8037109375,187.70947265625)"/>
<path d="M0 0 C13.25613427 6.48330156 27.18926664 17.08182615 33 31 C35.56477485 41.65278319 35.34978044 52.67477273 35.0625 63.5625 C35.04607956 64.26242317 35.02965912 64.96234634 35.01274109 65.68347931 C34.50734263 85.6886535 33.32825946 106.70382479 25.3125 125.3125 C24.97001221 126.13242432 24.62752441 126.95234863 24.2746582 127.79711914 C18.51999093 141.16653501 10.79069817 152.29321311 1 163 C-0.07507813 164.19882812 -0.07507813 164.19882812 -1.171875 165.421875 C-17.04297641 182.24762913 -37.80149797 191.60561821 -60 197 C-61.26714844 197.31839844 -62.53429687 197.63679687 -63.83984375 197.96484375 C-71.86573728 199.73298476 -79.54936133 200.27164082 -87.75 200.3125 C-89.18025513 200.32083862 -89.18025513 200.32083862 -90.6394043 200.3293457 C-95.04265841 200.28310383 -98.11118217 200.23146186 -102 198 C-100.29457031 197.65388672 -100.29457031 197.65388672 -98.5546875 197.30078125 C-66.60782447 190.64011247 -38.93468259 175.35521978 -20.41015625 147.7734375 C-13.87829379 137.69239443 -8.82324082 127.42483342 -5.0625 116 C-4.77995361 115.15953125 -4.49740723 114.3190625 -4.20629883 113.453125 C0.43279572 98.43048213 0.28456517 82.65197265 0.1953125 67.08984375 C0.191571 65.14116055 0.18872942 63.19247544 0.18673706 61.24378967 C0.17919 56.17555318 0.15962098 51.10743582 0.1373291 46.03924561 C0.11667553 40.84323741 0.10769411 35.6472095 0.09765625 30.45117188 C0.07636441 20.30072961 0.04233983 10.15037481 0 0 Z " fill="#D3B1A9" transform="translate(263,124)"/>
<path d="M0 0 C31.68 0 63.36 0 96 0 C96.0825 8.4975 96.165 16.995 96.25 25.75 C96.28641602 28.42834961 96.32283203 31.10669922 96.36035156 33.86621094 C96.3720339 35.98892413 96.3822268 38.11164627 96.390625 40.234375 C96.41108887 41.33668457 96.43155273 42.43899414 96.45263672 43.57470703 C96.45312012 44.62996582 96.45360352 45.68522461 96.45410156 46.77246094 C96.46298401 47.68735291 96.47186646 48.60224487 96.48101807 49.54486084 C95.81103977 52.96446203 94.88200778 54.03446718 92 56 C89.0521473 56.39455787 86.47822717 56.54732315 83.53125 56.51757812 C82.25254028 56.52809204 82.25254028 56.52809204 80.94799805 56.53881836 C78.1316668 56.55641568 75.31634136 56.5447696 72.5 56.53125 C70.54231575 56.53394442 68.5846328 56.53782642 66.62695312 56.54284668 C62.52460993 56.54874408 58.42261518 56.54017093 54.3203125 56.52148438 C49.06079372 56.49869475 43.80209136 56.51181653 38.54260254 56.53577423 C34.5002629 56.55022563 30.45811695 56.54562923 26.41577148 56.53526306 C24.47648014 56.53259396 22.53717123 56.53587197 20.59790039 56.54518127 C17.8877095 56.55533602 15.17884225 56.53986128 12.46875 56.51757812 C11.66655029 56.52567505 10.86435059 56.53377197 10.0378418 56.54211426 C6.5717093 56.48929413 4.39513447 56.26948219 1.49908447 54.29437256 C-0.30035657 51.54029951 -0.48587838 50.0454729 -0.45410156 46.77246094 C-0.45361816 45.71720215 -0.45313477 44.66194336 -0.45263672 43.57470703 C-0.43217285 42.47239746 -0.41170898 41.37008789 -0.390625 40.234375 C-0.38659668 39.21617676 -0.38256836 38.19797852 -0.37841797 37.14892578 C-0.35750565 33.34910029 -0.3016601 29.54953186 -0.25 25.75 C-0.1675 17.2525 -0.085 8.755 0 0 Z " fill="#D2364E" transform="translate(376,380)"/>
<path d="M0 0 C5.11872862 -0.12557268 10.23652056 -0.21524578 15.35644531 -0.2746582 C17.09032852 -0.29947829 18.82411087 -0.33334664 20.55761719 -0.37719727 C41.28131623 -0.88748534 57.28352438 4.14617082 72.71875 18.62890625 C83.30019073 29.6270818 90.38909574 44.51772942 90.22705078 59.88476562 C90.22734283 60.6272052 90.22763489 61.36964478 90.22793579 62.13458252 C90.22655612 64.55859574 90.21106017 66.9822913 90.1953125 69.40625 C90.19157751 71.09875318 90.18873283 72.79125853 90.18673706 74.48376465 C90.17913888 78.9159147 90.15952358 83.34793151 90.1373291 87.7800293 C90.11678806 92.31166787 90.10771776 96.84332819 90.09765625 101.375 C90.07627372 110.25006765 90.0411231 119.12500184 90 128 C79.44 128 68.88 128 58 128 C57.96261719 123.12089844 57.92523438 118.24179687 57.88671875 113.21484375 C57.85638352 110.09306604 57.82519967 106.97134156 57.79101562 103.84960938 C57.73703391 98.91270907 57.68591456 93.97591401 57.65356445 89.03881836 C57.62723548 85.05098269 57.58663392 81.06350798 57.53681374 77.07589912 C57.52034219 75.56720084 57.50870697 74.05844041 57.50238609 72.54966545 C57.44321183 59.70331523 56.65750913 46.3836899 50.5 34.8125 C50.15815674 34.15451416 49.81631348 33.49652832 49.46411133 32.81860352 C43.4904342 21.89004671 34.9902865 13.87468768 24 8 C23.28585937 7.60296875 22.57171875 7.2059375 21.8359375 6.796875 C15.00790575 3.37007255 7.45952577 2.29730883 0 1 C0 0.67 0 0.34 0 0 Z " fill="#D3B1A9" transform="translate(254,356)"/>
<path d="M0 0 C38.1275092 -0.95723758 70.12168252 5.5925546 99 32 C99.79921875 32.71671875 100.5984375 33.4334375 101.421875 34.171875 C112.74898409 44.85631124 120.72026642 57.87245298 127 72 C127.48210937 73.06605469 127.96421875 74.13210937 128.4609375 75.23046875 C135.53629047 92.14699448 136.63614654 108.86248342 136 127 C131.48313852 123.31434412 127.3051717 119.37759995 123.20703125 115.234375 C122.69018768 114.71202271 122.17334412 114.18967041 121.64083862 113.65148926 C119.48031601 111.46325968 117.32352209 109.2714356 115.17114258 107.07519531 C113.58333497 105.45718678 111.98936179 103.84545733 110.39453125 102.234375 C109.91216507 101.73854919 109.42979889 101.24272339 108.93281555 100.73187256 C106.96625761 98.75079433 105.24964539 97.12396129 102.73583984 95.87573242 C101 95 101 95 99.83203125 91.75390625 C99.4829366 90.35905354 99.14379189 88.96168792 98.8125 87.5625 C90.81829046 57.68602575 70.83462801 32.50296982 44.27734375 16.80859375 C31.43524881 9.72171656 17.82328987 4.2318925 3.1953125 2.45703125 C2.47085938 2.30621094 1.74640625 2.15539062 1 2 C0.67 1.34 0.34 0.68 0 0 Z " fill="#545C66" transform="translate(160,28)"/>
<path d="M0 0 C0 34.32 0 68.64 0 104 C-10.21955504 104 -15.79939187 101.76894343 -23.2109375 94.859375 C-29.50403349 88.3189521 -32.23250062 82.21430094 -32.29052734 72.98828125 C-32.29724457 72.31429291 -32.30396179 71.64030457 -32.31088257 70.94589233 C-32.32976376 68.73468506 -32.33378115 66.52378268 -32.3359375 64.3125 C-32.34237044 62.76603066 -32.34909917 61.21956253 -32.35610962 59.6730957 C-32.36805628 56.43861061 -32.37179296 53.20423214 -32.37060547 49.96972656 C-32.37040199 45.83370702 -32.39774451 41.69837238 -32.43214989 37.56251526 C-32.45442657 34.37110272 -32.45844285 31.17985512 -32.45738602 27.9883728 C-32.45973926 26.46379223 -32.46854728 24.93920693 -32.48405075 23.41470337 C-32.50373547 21.27989077 -32.49786575 19.14655718 -32.48583984 17.01171875 C-32.48868988 15.79959717 -32.49153992 14.58747559 -32.49447632 13.33862305 C-31.88452349 9.22032154 -30.65891811 7.18866677 -28 4 C-22 0 -22 0 0 0 Z " fill="#D2364D" transform="translate(344,236)"/>
<path d="M0 0 C21.12 0 42.24 0 64 0 C64 10.56 64 21.12 64 32 C56.25261432 32.0839067 48.50687581 32.16403851 40.75942993 32.20700073 C37.15159651 32.22811516 33.54413955 32.25632493 29.93652344 32.30175781 C26.46112087 32.34525125 22.98608312 32.36914421 19.51042938 32.37950897 C17.54054216 32.39048615 15.57080153 32.421707 13.60113525 32.45318604 C11.79972076 32.45363922 11.79972076 32.45363922 9.96191406 32.45410156 C8.3763974 32.46742523 8.3763974 32.46742523 6.7588501 32.48101807 C4 32 4 32 0 28 C0 18.76 0 9.52 0 0 Z " fill="#656C77" transform="translate(376,404)"/>
<path d="M0 0 C2.60052194 1.64941946 3.57913182 2.36362334 5 5 C5.70959166 9.46512234 5.58032371 13.88362453 5.48828125 18.39453125 C5.48120651 19.69702316 5.47413177 20.99951508 5.46684265 22.34147644 C5.44781513 25.79263884 5.39875439 29.24273739 5.34332275 32.69348145 C5.29203649 36.21933604 5.26930883 39.74536373 5.24414062 43.27148438 C5.19062863 50.18146884 5.10272947 57.09057371 5 64 C-0.28 64 -5.56 64 -11 64 C-11.04520656 56.50683941 -11.08189067 49.01372968 -11.10362434 41.52046585 C-11.11405608 38.04093606 -11.12820401 34.56150451 -11.15087891 31.08203125 C-11.17679095 27.08071963 -11.18647782 23.07951103 -11.1953125 19.078125 C-11.20563507 17.83009094 -11.21595764 16.58205688 -11.22659302 15.29620361 C-11.22674408 14.13530212 -11.22689514 12.97440063 -11.22705078 11.77832031 C-11.231492 10.75683899 -11.23593323 9.73535767 -11.24050903 8.68292236 C-10.99067706 5.89600086 -10.54201562 4.31813714 -9 2 C-5.48175489 -0.34549674 -4.14224306 -0.57991403 0 0 Z " fill="#D3B1A9" transform="translate(75,420)"/>
<path d="M0 0 C2.30275556 1.8670991 3.67823871 3.35647741 5 6 C5.09101612 7.8485708 5.11753146 9.70046379 5.11352539 11.55126953 C5.11344986 12.71232208 5.11337433 13.87337463 5.11329651 15.0696106 C5.10813522 16.32796722 5.10297394 17.58632385 5.09765625 18.8828125 C5.0962413 20.16735321 5.09482635 21.45189392 5.09336853 22.77536011 C5.08954911 26.19156842 5.07972373 29.60773426 5.06866455 33.02392578 C5.05843807 36.50943426 5.05386826 39.9949496 5.04882812 43.48046875 C5.03810095 50.32033171 5.02050879 57.16015945 5 64 C-0.28 64 -5.56 64 -11 64 C-11.11308887 56.39381642 -11.20476606 48.78794708 -11.25906086 41.18112659 C-11.28512388 37.64867155 -11.32045866 34.11682287 -11.37719727 30.5847168 C-11.44206064 26.52126339 -11.46620732 22.45844402 -11.48828125 18.39453125 C-11.51408768 17.1297847 -11.5398941 15.86503815 -11.56648254 14.56196594 C-11.5696072 4.79184353 -11.5696072 4.79184353 -8.66088867 1.69799805 C-5.39876141 -0.38366955 -3.79770519 -0.72722014 0 0 Z " fill="#D3B1A9" transform="translate(283,420)"/>
<path d="M0 0 C4.22891198 0.88102333 5.43247843 2.13074145 8 5.625 C8.69750101 9.5102386 8.58149477 13.33330149 8.48828125 17.26953125 C8.48120651 18.3944548 8.47413177 19.51937836 8.46684265 20.6783905 C8.43889144 24.26544149 8.37614717 27.85092212 8.3125 31.4375 C8.28741827 33.87172222 8.26460489 36.30596895 8.24414062 38.74023438 C8.18906162 44.70242644 8.10277994 50.66344713 8 56.625 C2.72 56.625 -2.56 56.625 -8 56.625 C-8.12364115 49.4534331 -8.21436178 42.28248719 -8.2746582 35.11010742 C-8.29979496 32.67054436 -8.33390946 30.23105655 -8.37719727 27.79174805 C-8.43788229 24.28415354 -8.466219 20.7775551 -8.48828125 17.26953125 C-8.51408768 16.17977493 -8.5398941 15.09001862 -8.56648254 13.96723938 C-8.56928253 6.39976286 -8.56928253 6.39976286 -5.65698242 2.4362793 C-3 0.625 -3 0.625 0 0 Z " fill="#EC5464" transform="translate(424,323.375)"/>
<path d="M0 0 C0.66 0.66 1.32 1.32 2 2 C-5.42857143 2.28571429 -5.42857143 2.28571429 -9 0 C-3.375 -1.125 -3.375 -1.125 0 0 Z " fill="#DAB8AF" transform="translate(170,322)"/>
</svg>
