<?xml version="1.0" encoding="UTF-8"?>
<svg version="1.1" xmlns="http://www.w3.org/2000/svg" width="512" height="512">
<path d="M0 0 C0.88717189 -0.0060911 1.77434378 -0.01218221 2.68839967 -0.01845789 C5.64366629 -0.03502808 8.59849921 -0.03032055 11.55380249 -0.0255127 C13.68002772 -0.03285668 15.80624897 -0.04144387 17.9324646 -0.05117798 C23.69724523 -0.07337283 29.46188282 -0.0763255 35.22670031 -0.07443047 C40.04733174 -0.07431062 44.86793304 -0.08288086 49.68855608 -0.09120798 C61.06911446 -0.11043643 72.4495995 -0.11332859 83.83016968 -0.10656738 C95.54765648 -0.0999336 107.26482794 -0.12276578 118.98225081 -0.15988111 C129.05984829 -0.19063719 139.13734467 -0.20193153 149.21498811 -0.1980443 C155.22596827 -0.19598216 161.23670322 -0.20137278 167.2476387 -0.22593689 C172.90638594 -0.2482977 178.56462327 -0.24624849 184.22337341 -0.22600937 C186.2912524 -0.22261533 188.35916633 -0.22761845 190.42699814 -0.24199295 C207.81887109 -0.35447448 221.08829581 1.88116693 234.00448608 14.49206543 C244.30487905 25.34768404 247.1611885 36.48720156 247.13070679 51.05578613 C247.13837318 52.94980164 247.13837318 52.94980164 247.14619446 54.88208008 C247.159532 58.33060385 247.16016886 61.77901767 247.15763116 65.22756219 C247.15655757 68.11493113 247.16145486 71.00227819 247.16623658 73.88964242 C247.17731429 80.70724751 247.1777794 87.5247975 247.17172241 94.34240723 C247.16568766 101.35485233 247.17798483 108.36709653 247.19929248 115.37950736 C247.21696012 121.41798432 247.22290161 127.45639763 247.21965474 133.49489945 C247.21784946 137.0934551 247.2204017 140.69186751 247.23436928 144.29039955 C247.2493836 148.30867994 247.2399326 152.3265568 247.22836304 156.34484863 C247.23600677 157.52284531 247.24365051 158.70084198 247.25152588 159.91453552 C247.15902116 174.49893751 242.23561824 185.47343521 232.32089233 196.09753418 C222.83200416 204.93979447 211.75159662 208.59538749 199.04354858 208.45690918 C197.86115601 208.4501416 197.86115601 208.4501416 196.65487671 208.4432373 C194.72190098 208.4315223 192.78896466 208.41358916 190.85604858 208.39440918 C190.87699585 209.29159668 190.89794312 210.18878418 190.91952515 211.11315918 C190.98812474 214.47540777 191.03805153 217.83690153 191.07577515 221.19958496 C191.09576154 222.64859835 191.12296056 224.09753243 191.1578064 225.54626465 C191.37825363 234.95417445 191.43458602 242.16959708 184.89120483 249.63659668 C184.24022827 250.1754248 183.58925171 250.71425293 182.91854858 251.26940918 C182.27015015 251.82370605 181.62175171 252.37800293 180.95370483 252.94909668 C175.23767232 256.88751759 169.88770513 256.68549682 163.16586304 256.66906738 C162.08879593 256.67417831 161.01172882 256.67928925 159.90202332 256.68455505 C156.34106894 256.69845514 152.78030812 256.69749342 149.21932983 256.69519043 C146.73936389 256.69907814 144.25939862 256.70341297 141.7794342 256.70817566 C136.57846928 256.71563953 131.37757222 256.71534609 126.17660522 256.71008301 C119.52671809 256.70429917 112.87711764 256.72119255 106.22726154 256.74442768 C101.10299568 256.75919687 95.97879655 256.76003218 90.85451317 256.75691795 C88.40382523 256.75742992 85.95313344 256.76264421 83.5024662 256.77272987 C80.06586483 256.78513342 76.62980025 256.77827781 73.19320679 256.76672363 C72.18973206 256.77436737 71.18625732 256.78201111 70.15237427 256.78988647 C56.17237618 256.68654635 45.25507732 251.32295551 35.14901733 241.84362793 C26.2926049 232.38371209 22.49133264 221.12517769 22.85604858 208.39440918 C21.93380493 208.41535645 21.01156128 208.43630371 20.06137085 208.45788574 C16.60032927 208.52654599 13.14002382 208.57644146 9.67855835 208.61413574 C8.1878814 208.63410376 6.69728128 208.66128838 5.20687866 208.69616699 C-3.26636927 208.88932182 -10.69152106 209.00191539 -18.14395142 204.39440918 C-18.79396118 204.01582764 -19.44397095 203.63724609 -20.11367798 203.24719238 C-26.18011326 199.57336055 -29.67025411 193.67673501 -32.51895142 187.33190918 C-33.31241606 183.60262533 -33.18298128 180.20762708 -33.14395142 176.39440918 C-34.18742737 176.40329163 -35.23090332 176.41217407 -36.30599976 176.42132568 C-46.13507723 176.50237801 -55.96408698 176.56235846 -65.7934227 176.60165787 C-70.84693062 176.62254132 -75.90016897 176.65087289 -80.95352173 176.69616699 C-85.8294261 176.73959757 -90.70507102 176.76354058 -95.58115387 176.77391815 C-97.44233536 176.78131453 -99.3035025 176.79575784 -101.16457367 176.81732941 C-103.76966646 176.84632662 -106.3736844 176.85036677 -108.97891235 176.84851074 C-109.74999329 176.86289185 -110.52107422 176.87727295 -111.31552124 176.89208984 C-114.50573438 176.86746231 -116.82561086 176.56445036 -119.65426636 175.05352783 C-121.14395142 172.39440918 -121.14395142 172.39440918 -121.14395142 161.39440918 C-163.38395142 161.39440918 -205.62395142 161.39440918 -249.14395142 161.39440918 C-249.14395142 124.10440918 -249.14395142 86.81440918 -249.14395142 48.39440918 C-206.90395142 48.39440918 -164.66395142 48.39440918 -121.14395142 48.39440918 C-121.14395142 44.43440918 -121.14395142 40.47440918 -121.14395142 36.39440918 C-116.0677477 31.31820546 -113.22010794 31.24186206 -106.45962524 31.18908691 C-105.67890152 31.17918732 -104.8981778 31.16928772 -104.09379578 31.15908813 C-101.51288894 31.12749741 -98.93196369 31.1027253 -96.35098267 31.07800293 C-94.56164572 31.05743131 -92.77231362 31.03643478 -90.98298645 31.01502991 C-86.27302976 30.95983076 -81.56302936 30.91041195 -76.85299683 30.86218262 C-72.04694732 30.81195187 -67.2409613 30.75627401 -62.43496704 30.7010498 C-53.00468272 30.5934946 -43.5743433 30.49204374 -34.14395142 30.39440918 C-33.95856812 29.5847168 -33.77318481 28.77502441 -33.58218384 27.9407959 C-33.20090332 26.33615479 -33.20090332 26.33615479 -32.81192017 24.69909668 C-32.44103271 23.11330811 -32.44103271 23.11330811 -32.06265259 21.4954834 C-29.69527097 13.50439084 -24.39062253 7.42033758 -17.14395142 3.39440918 C-11.19000994 0.80205622 -6.45631351 -0.04218769 0 0 Z " fill="#EC5464" transform="translate(257.1439514160156,3.6055908203125)"/>
<path d="M0 0 C1.08360809 -0.00671722 2.16721619 -0.01343445 3.28366089 -0.02035522 C6.86745795 -0.03935708 10.45106779 -0.04326116 14.03491211 -0.04541016 C16.53250709 -0.05183868 19.03010131 -0.05856708 21.5276947 -0.06558228 C26.76733611 -0.07756202 32.00693022 -0.08134834 37.24658203 -0.08007812 C42.61128641 -0.07901225 47.97570189 -0.0930381 53.34033203 -0.12109375 C59.8300646 -0.15454421 66.31953824 -0.16818556 72.80935478 -0.16685867 C75.27514549 -0.16920925 77.74093923 -0.17800192 80.20668221 -0.19352341 C83.66933492 -0.21327164 87.1310805 -0.20730903 90.59375 -0.1953125 C91.59938492 -0.20655151 92.60501984 -0.21779053 93.64112854 -0.22937012 C107.41176162 -0.10904392 118.1780401 5.3976685 128.06225586 14.72802734 C136.44317006 23.62045274 140.52183535 34.12275373 140.30908203 46.31835938 C140.28950439 46.9691748 140.26992676 47.61999023 140.24975586 48.29052734 C141.17199951 48.26958008 142.09424316 48.24863281 143.04443359 48.22705078 C146.50547517 48.15839053 149.96578062 48.10849506 153.42724609 48.07080078 C154.91792304 48.05083276 156.40852316 48.02364814 157.89892578 47.98876953 C166.37217371 47.7956147 173.79732551 47.68302113 181.24975586 52.29052734 C181.89976562 52.66910889 182.54977539 53.04769043 183.21948242 53.43774414 C189.28591771 57.11157597 192.77605855 63.00820152 195.62475586 69.35302734 C196.41822051 73.08231119 196.28878573 76.47730945 196.24975586 80.29052734 C197.29323181 80.2816449 198.33670776 80.27276245 199.4118042 80.26361084 C209.24088167 80.18255851 219.06989143 80.12257806 228.89922714 80.08327866 C233.95273506 80.0623952 239.00597341 80.03406363 244.05932617 79.98876953 C248.93523054 79.94533895 253.81087546 79.92139595 258.68695831 79.91101837 C260.5481398 79.90362199 262.40930694 79.88917868 264.27037811 79.86760712 C266.8754709 79.83860991 269.47948884 79.83456975 272.0847168 79.83642578 C272.85579773 79.82204468 273.62687866 79.80766357 274.42132568 79.79284668 C279.72884235 79.8338192 280.19440479 80.23517627 284.24975586 84.29052734 C284.24975586 88.25052734 284.24975586 92.21052734 284.24975586 96.29052734 C326.48975586 96.29052734 368.72975586 96.29052734 412.24975586 96.29052734 C412.24975586 133.58052734 412.24975586 170.87052734 412.24975586 209.29052734 C370.00975586 209.29052734 327.76975586 209.29052734 284.24975586 209.29052734 C284.24975586 212.59052734 284.24975586 215.89052734 284.24975586 219.29052734 C282.26142883 222.38005066 282.26142883 222.38005066 279.24975586 224.29052734 C276.31908591 224.76014435 273.98268251 224.9273841 271.06298828 224.8581543 C269.84757355 224.8592495 269.84757355 224.8592495 268.60760498 224.86036682 C265.93945485 224.85689384 263.27306829 224.81804838 260.60522461 224.77880859 C258.75149998 224.76947939 256.89776299 224.76236378 255.04402161 224.75737 C250.17259493 224.73830858 245.30191745 224.6892152 240.43078613 224.6338501 C235.45713434 224.58263911 230.48336111 224.559852 225.50952148 224.53466797 C215.75593768 224.48109561 206.00290915 224.39579317 196.24975586 224.29052734 C196.26345215 225.55437256 196.27714844 226.81821777 196.29125977 228.12036133 C196.37307195 235.6697013 193.06097214 242.29000789 187.95288086 247.75927734 C180.61577417 254.35594207 173.04255634 256.59319789 163.34631348 256.56468201 C162.46085043 256.56991869 161.57538739 256.57515536 160.66309214 256.58055073 C157.70169971 256.5955292 154.74048041 256.59625542 151.77905273 256.59692383 C149.65312408 256.60454699 147.52719817 256.61297476 145.40127563 256.62214661 C139.62814243 256.64408868 133.8550622 256.65289067 128.08189201 256.65797305 C124.47123971 256.66161833 120.86060125 256.66785944 117.24995422 256.67497444 C104.64213452 256.6994723 92.03435595 256.71252063 79.42651367 256.71606445 C67.69431192 256.71969531 55.96237249 256.74955776 44.23025084 256.79146904 C34.1442105 256.82623016 24.0582568 256.84161394 13.972157 256.84231049 C7.95442705 256.8431016 1.93696407 256.85176368 -4.08070374 256.88030815 C-9.74761422 256.90658685 -15.41403832 256.90863915 -21.08098221 256.89265251 C-23.15209137 256.89084556 -25.22322913 256.89746 -27.29427719 256.91347122 C-44.70069721 257.03975054 -57.97063519 254.81534554 -70.89868164 242.19287109 C-81.20414679 231.33190689 -84.04848095 220.17438623 -84.05664062 205.60083008 C-84.06496414 204.33482468 -84.07328766 203.06881927 -84.0818634 201.76445007 C-84.10371752 198.30534817 -84.11259569 194.84633463 -84.11768985 191.38717151 C-84.12134607 189.21927089 -84.12759281 187.05139296 -84.13469124 184.88350105 C-84.15916012 177.30066041 -84.1722308 169.71788785 -84.17578125 162.13500977 C-84.17940825 155.09981042 -84.20924977 148.06504953 -84.25118583 141.02998394 C-84.28605301 134.96511574 -84.30133256 128.90039159 -84.30202729 122.83542401 C-84.30281494 119.22431656 -84.31131326 115.61365576 -84.34002495 112.00265312 C-84.37142434 107.96345794 -84.36206824 103.92528467 -84.34960938 99.88598633 C-84.36444366 98.71302002 -84.37927795 97.54005371 -84.39456177 96.33154297 C-84.27168872 82.23916377 -79.39108024 71.11633713 -69.65258789 61.14208984 C-60.08414598 52.06303914 -49.44357367 47.89042536 -36.31274414 48.16552734 C-35.07234375 48.1790625 -35.07234375 48.1790625 -33.80688477 48.19287109 C-31.78787706 48.21621222 -29.76902058 48.25207446 -27.75024414 48.29052734 C-27.77119141 47.39333984 -27.79213867 46.49615234 -27.8137207 45.57177734 C-27.8823203 42.20952876 -27.93224708 38.84803499 -27.9699707 35.48535156 C-27.98995709 34.03633817 -28.01715611 32.58740409 -28.05200195 31.13867188 C-28.27244918 21.73076207 -28.32878157 14.51533944 -21.78540039 7.04833984 C-21.13442383 6.50951172 -20.48344727 5.97068359 -19.81274414 5.41552734 C-19.1643457 4.86123047 -18.51594727 4.30693359 -17.84790039 3.73583984 C-12.11961246 -0.21102521 -6.7371213 -0.00598775 0 0 Z " fill="#4A89DC" transform="translate(91.750244140625,251.70947265625)"/>
<path d="M0 0 C1.3921875 0.00737183 1.3921875 0.00737183 2.8125 0.01489258 C26.75542094 0.41961428 47.10627567 10.95865887 64.1875 27.25 C80.73472774 44.43624669 88.22338192 66.99953322 88.2734375 90.48046875 C88.2834227 92.15910759 88.2834227 92.15910759 88.29360962 93.87165833 C88.30366413 96.22374853 88.30842889 98.57586684 88.30810547 100.92797852 C88.31246797 104.47396267 88.34883823 108.01868909 88.38671875 111.56445312 C88.52834459 140.16572785 81.13124795 163.50064479 61.0625 184.5 C43.09791578 201.8056516 19.30922125 209.09093593 -5.21875 208.65234375 C-18.51404692 208.02259403 -28.38994489 201.40351069 -37.3125 192 C-46.23930676 181.56168214 -48.36142471 170.96773219 -48.36889648 157.62280273 C-48.37722 156.35679733 -48.38554352 155.09079193 -48.39411926 153.78642273 C-48.41597338 150.32732083 -48.42485155 146.86830729 -48.42994571 143.40914416 C-48.43360193 141.24124355 -48.43984867 139.07336562 -48.4469471 136.90547371 C-48.47141598 129.32263307 -48.48448666 121.73986051 -48.48803711 114.15698242 C-48.49166411 107.12178308 -48.52150563 100.08702219 -48.56344169 93.05195659 C-48.59830887 86.98708839 -48.61358841 80.92236425 -48.61428314 74.85739666 C-48.6150708 71.24628922 -48.62356912 67.63562842 -48.65228081 64.02462578 C-48.6836802 59.9854306 -48.6743241 55.94725733 -48.66186523 51.90795898 C-48.67669952 50.73499268 -48.69153381 49.56202637 -48.70681763 48.35351562 C-48.58394458 34.26113642 -43.7033361 23.13830978 -33.96484375 13.1640625 C-24.20206169 3.90061144 -13.35887822 -0.08361417 0 0 Z " fill="#5C9CEB" transform="translate(56.0625,299.6875)"/>
<path d="M0 0 C42.24 0 84.48 0 128 0 C128 37.29 128 74.58 128 113 C85.76 113 43.52 113 0 113 C0 75.71 0 38.42 0 0 Z " fill="#EAC6BA" transform="translate(376,348)"/>
<path d="M0 0 C42.24 0 84.48 0 128 0 C128 37.29 128 74.58 128 113 C85.76 113 43.52 113 0 113 C0 75.71 0 38.42 0 0 Z " fill="#EAC6BB" transform="translate(8,52)"/>
<path d="M0 0 C20.80310244 -0.16043524 20.80310244 -0.16043524 29.6640625 -0.1953125 C35.71270769 -0.21923303 41.7611109 -0.24754439 47.80957031 -0.30175781 C52.68547468 -0.34518839 57.5611196 -0.3691314 62.43720245 -0.37950897 C64.29838394 -0.38690535 66.15955108 -0.40134866 68.02062225 -0.42292023 C70.62571504 -0.45191744 73.22973298 -0.45595759 75.83496094 -0.45410156 C76.60604187 -0.46848267 77.3771228 -0.48286377 78.17156982 -0.49768066 C81.48221219 -0.47212345 83.52742633 -0.36171652 86.19720745 1.68178272 C88.42100012 4.54136553 88.50443009 5.98003888 88.5146637 9.57249451 C88.52738815 10.70667816 88.54011261 11.84086182 88.55322266 13.00941467 C88.54669678 14.24952805 88.5401709 15.48964142 88.53344727 16.76733398 C88.54206284 18.07661865 88.55067841 19.38590332 88.55955505 20.73486328 C88.58205944 24.32382301 88.57910702 27.91234197 88.57023358 31.5013454 C88.56512354 34.49841113 88.57241641 37.49539405 88.57970566 40.49245125 C88.59670821 47.56348188 88.59313565 54.63429673 88.57641602 61.70532227 C88.55949516 68.99798955 88.57532736 76.29005825 88.6076389 83.58266014 C88.63433813 89.84608177 88.64160994 96.1093171 88.63312382 102.37278992 C88.62819534 106.11271546 88.63040528 109.85228086 88.65091133 113.59216118 C88.67268498 117.76291115 88.65386637 121.93252692 88.63110352 126.10327148 C88.64864182 127.9604052 88.64864182 127.9604052 88.66653442 129.85505676 C88.57508116 138.07245812 88.57508116 138.07245812 85.972229 142.27056885 C82.19027558 144.47114897 79.06999703 144.66856046 74.81323242 144.56762695 C73.59781769 144.56872215 73.59781769 144.56872215 72.35784912 144.56983948 C69.68969899 144.5663665 67.02331243 144.52752103 64.35546875 144.48828125 C62.50174412 144.47895205 60.64800713 144.47183644 58.79426575 144.46684265 C53.92283907 144.44778124 49.05216159 144.39868785 44.18103027 144.34332275 C38.33243543 144.28310295 32.48358961 144.26020994 26.63477325 144.23105621 C17.75599495 144.18262226 8.87885945 144.0868018 0 144 C0 122.88 0 101.76 0 80 C-5.29546875 80.02320313 -10.5909375 80.04640625 -16.046875 80.0703125 C-19.40104657 80.08053119 -22.75519895 80.0901591 -26.109375 80.09765625 C-31.43363428 80.10961323 -36.75782479 80.12376071 -42.08203125 80.15087891 C-46.37436934 80.17260467 -50.66663369 80.18456808 -54.95902252 80.18975449 C-56.59688732 80.19345072 -58.23474807 80.20066849 -59.87258148 80.21146011 C-62.16611972 80.22597155 -64.45935295 80.2279781 -66.75292969 80.22705078 C-68.05864929 80.231492 -69.3643689 80.23593323 -70.70965576 80.24050903 C-73.81650851 80.01341238 -75.47970517 79.76853031 -78 78 C-80.34549674 74.48175489 -80.57991403 73.14224306 -80 69 C-77.344594 65.57399618 -75.8730649 64.15222284 -71.55143738 63.39872742 C-70.21685773 63.38434821 -68.88180294 63.39727428 -67.54760742 63.43237305 C-66.8153595 63.43164291 -66.08311157 63.43091278 -65.32867432 63.43016052 C-62.92017254 63.43363042 -60.51363051 63.47245872 -58.10546875 63.51171875 C-56.43110714 63.52104911 -54.75673184 63.52816417 -53.08235168 63.53315735 C-48.68435704 63.55220984 -44.28719356 63.60129478 -39.88952637 63.65667725 C-34.60829087 63.71692174 -29.32677679 63.73979438 -24.04529572 63.76894379 C-16.02961983 63.81736174 -8.01576607 63.91318665 0 64 C0 42.88 0 21.76 0 0 Z " fill="#3679CE" transform="translate(288,332)"/>
<path d="M0 0 C0.77911743 -0.00175232 1.55823486 -0.00350464 2.36096191 -0.00531006 C4.93711573 -0.00971277 7.51320095 -0.0067967 10.08935547 -0.00341797 C11.87629205 -0.00409133 13.66322853 -0.00506162 15.45016479 -0.00631714 C19.19432447 -0.00779185 22.93846029 -0.00564629 26.68261719 -0.00097656 C31.49267531 0.00472884 36.30267775 0.00143517 41.11273384 -0.00454903 C44.80146712 -0.00815371 48.49018708 -0.00701663 52.17892075 -0.00442123 C53.95322552 -0.00375213 55.72753149 -0.0045798 57.50183487 -0.00690079 C59.97521444 -0.00942668 62.4485023 -0.00558802 64.921875 0 C66.03150101 -0.00303635 66.03150101 -0.00303635 67.1635437 -0.00613403 C72.21727858 0.01513014 72.21727858 0.01513014 73.33154297 1.12939453 C73.42804734 2.98967487 73.45341589 4.85366482 73.45179749 6.71644592 C73.45385948 8.53596519 73.45385948 8.53596519 73.45596313 10.39224243 C73.45242353 11.7487185 73.44878871 13.10519433 73.44506836 14.46166992 C73.44478649 15.88051858 73.44494421 17.29936737 73.44551086 18.71821594 C73.44579886 22.58168254 73.43990187 26.44511836 73.43293691 30.30857778 C73.42670363 34.34182026 73.42609959 38.37506338 73.4249115 42.40830994 C73.4217981 50.05104921 73.41358461 57.69377426 73.40356201 65.33650726 C73.39240112 74.03527472 73.38689048 82.73404284 73.38186657 91.43281567 C73.371402 109.33168337 73.3538024 127.23053781 73.33154297 145.12939453 C62.44845927 145.22203529 51.56546923 145.29312949 40.68207169 145.33664322 C35.62856377 145.35752667 30.57532542 145.38585824 25.52197266 145.43115234 C20.64606829 145.47458292 15.77042336 145.49852593 10.89434052 145.5089035 C9.03315903 145.51629988 7.17199189 145.53074319 5.31092072 145.55231476 C2.70582793 145.58131197 0.10180999 145.58535213 -2.50341797 145.58349609 C-3.2744989 145.5978772 -4.04557983 145.6122583 -4.84002686 145.6270752 C-8.14892565 145.60153144 -10.19602992 145.49032919 -12.86608505 143.45040512 C-15.09751038 140.57687964 -15.17091647 139.12100223 -15.1763916 135.51220703 C-15.1876709 134.36816406 -15.1989502 133.22412109 -15.21057129 132.04541016 C-15.20247437 130.794375 -15.19437744 129.54333984 -15.18603516 128.25439453 C-15.19145672 126.92040238 -15.19857957 125.58641623 -15.20727539 124.25244141 C-15.22550816 120.63254105 -15.21844177 117.01309679 -15.20575905 113.39318848 C-15.19563098 109.60472384 -15.20502418 105.81629821 -15.21130371 102.02783203 C-15.21858071 95.66578155 -15.20899116 89.30391681 -15.18994141 82.94189453 C-15.1681724 75.58679316 -15.17522374 68.2321353 -15.19724703 60.87704468 C-15.21539965 54.56184086 -15.21796008 48.24677055 -15.20749235 41.93154907 C-15.2012566 38.1598585 -15.20042385 34.38837639 -15.21363831 30.61669922 C-15.22519438 27.070671 -15.21717647 23.5252145 -15.19406128 19.97924805 C-15.18625017 18.05729966 -15.19813225 16.13530291 -15.21057129 14.21337891 C-15.19929199 13.06933594 -15.1880127 11.92529297 -15.1763916 10.74658203 C-15.1748835 9.75255371 -15.1733754 8.75852539 -15.17182159 7.734375 C-14.52555253 4.3898442 -13.3049815 3.22249781 -10.66845703 1.12939453 C-7.05603958 -0.07474462 -3.75965863 -0.01034443 0 0 Z " fill="#DA4453" transform="translate(150.66845703125,34.87060546875)"/>
<path d="M0 0 C1.08360809 -0.00671722 2.16721619 -0.01343445 3.28366089 -0.02035522 C6.86745795 -0.03935708 10.45106779 -0.04326116 14.03491211 -0.04541016 C16.53250709 -0.05183868 19.03010131 -0.05856708 21.5276947 -0.06558228 C26.76733611 -0.07756202 32.00693022 -0.08134834 37.24658203 -0.08007812 C42.61128641 -0.07901225 47.97570189 -0.0930381 53.34033203 -0.12109375 C59.8300646 -0.15454421 66.31953824 -0.16818556 72.80935478 -0.16685867 C75.27514549 -0.16920925 77.74093923 -0.17800192 80.20668221 -0.19352341 C83.66933492 -0.21327164 87.1310805 -0.20730903 90.59375 -0.1953125 C91.59938492 -0.20655151 92.60501984 -0.21779053 93.64112854 -0.22937012 C107.41176162 -0.10904392 118.1780401 5.3976685 128.06225586 14.72802734 C137.2739693 24.50195803 140.24975586 34.96134856 140.24975586 48.29052734 C84.80975586 48.29052734 29.36975586 48.29052734 -27.75024414 48.29052734 C-27.75024414 13.85513967 -27.75024414 13.85513967 -21.78540039 7.04833984 C-21.13442383 6.50951172 -20.48344727 5.97068359 -19.81274414 5.41552734 C-19.1643457 4.86123047 -18.51594727 4.30693359 -17.84790039 3.73583984 C-12.11961246 -0.21102521 -6.7371213 -0.00598775 0 0 Z " fill="#3578CE" transform="translate(91.750244140625,251.70947265625)"/>
<path d="M0 0 C55.44 0 110.88 0 168 0 C168 34.43538767 168 34.43538767 162.03515625 41.2421875 C161.05869141 42.05042969 161.05869141 42.05042969 160.0625 42.875 C159.41410156 43.42929688 158.76570312 43.98359375 158.09765625 44.5546875 C152.38162374 48.49310841 147.03165655 48.29108764 140.30981445 48.2746582 C139.23274734 48.27976913 138.15568024 48.28488007 137.04597473 48.29014587 C133.48502036 48.30404596 129.92425954 48.30308424 126.36328125 48.30078125 C123.88331531 48.30466896 121.40335003 48.30900379 118.92338562 48.31376648 C113.72242069 48.32123035 108.52152363 48.32093691 103.32055664 48.31567383 C96.67066951 48.30988999 90.02106906 48.32678337 83.37121296 48.3500185 C78.2469471 48.36478769 73.12274796 48.365623 67.99846458 48.36250877 C65.54777665 48.36302074 63.09708485 48.36823503 60.64641762 48.37832069 C57.20981625 48.39072424 53.77375166 48.38386863 50.3371582 48.37231445 C49.33368347 48.37995819 48.33020874 48.38760193 47.29632568 48.39547729 C33.31632759 48.29213717 22.39902874 42.92854633 12.29296875 33.44921875 C3.25670043 23.79719109 0 12.97201056 0 0 Z " fill="#DA4352" transform="translate(280,212)"/>
<path d="M0 0 C13.2 0 26.4 0 40 0 C40 36.96 40 73.92 40 112 C26.8 112 13.6 112 0 112 C0 75.04 0 38.08 0 0 Z " fill="#656D78" transform="translate(312,332)"/>
<path d="M0 0 C13.2 0 26.4 0 40 0 C40 34.32 40 68.64 40 104 C26.8 104 13.6 104 0 104 C0 69.68 0 35.36 0 0 Z " fill="#656C77" transform="translate(160,76)"/>
<path d="M0 0 C6.6 0 13.2 0 20 0 C24.5002146 4.5002146 24.5002146 4.5002146 24.5146637 9.57249451 C24.52738815 10.70667816 24.54011261 11.84086182 24.55322266 13.00941467 C24.54669678 14.24952805 24.5401709 15.48964142 24.53344727 16.76733398 C24.54206284 18.07661865 24.55067841 19.38590332 24.55955505 20.73486328 C24.58205944 24.32382301 24.57910702 27.91234197 24.57023358 31.5013454 C24.56512354 34.49841113 24.57241641 37.49539405 24.57970566 40.49245125 C24.59670821 47.56348188 24.59313565 54.63429673 24.57641602 61.70532227 C24.55949516 68.99798955 24.57532736 76.29005825 24.6076389 83.58266014 C24.63433813 89.84608177 24.64160994 96.1093171 24.63312382 102.37278992 C24.62819534 106.11271546 24.63040528 109.85228086 24.65091133 113.59216118 C24.67268498 117.76291115 24.65386637 121.93252692 24.63110352 126.10327148 C24.64279572 127.34136063 24.65448792 128.57944977 24.66653442 129.85505676 C24.64755348 131.56056198 24.64755348 131.56056198 24.62818909 133.30052185 C24.62760278 134.28625403 24.62701647 135.27198622 24.62641239 136.28758907 C24 139 24 139 19 144 C12.73 144 6.46 144 0 144 C0 96.48 0 48.96 0 0 Z " fill="#3678CD" transform="translate(352,332)"/>
<path d="M0 0 C0.76150864 -0.00029205 1.52301727 -0.00058411 2.30760193 -0.00088501 C4.81285177 0.0005031 7.31780045 0.01603967 9.82299805 0.03173828 C11.56462949 0.03547026 13.30626304 0.03831636 15.04789734 0.04031372 C19.62311642 0.04793562 24.19820773 0.0675717 28.77337646 0.08972168 C33.44549837 0.11021122 38.117641 0.11932208 42.78979492 0.12939453 C51.95066727 0.15081899 61.1114114 0.18598935 70.2722168 0.22705078 C70.2722168 5.50705078 70.2722168 10.78705078 70.2722168 16.22705078 C68.02119141 16.23639648 65.77016602 16.24574219 63.45092773 16.25537109 C56.01482128 16.28913328 48.57899259 16.34467777 41.14310837 16.41095352 C36.63453461 16.45046854 32.12615734 16.48263714 27.61743164 16.49804688 C23.26648644 16.51318716 18.91608127 16.54758531 14.56537628 16.5953598 C12.90524234 16.61020086 11.2450313 16.61809336 9.58483124 16.61893463 C7.25966267 16.62129797 4.93599425 16.64832335 2.61108398 16.68115234 C1.9241597 16.67612198 1.23723541 16.67109161 0.52949524 16.66590881 C-2.78099183 16.73826361 -4.49266141 17.0491375 -7.1630249 19.06976318 C-9.2598357 21.96057637 -9.17409137 23.73097011 -8.7277832 27.22705078 C-7.00551824 30.47555055 -7.00551824 30.47555055 -3.7277832 31.22705078 C-1.35190744 31.34563015 1.02709664 31.40410368 3.40576172 31.43237305 C4.12796402 31.44227264 4.85016632 31.45217224 5.59425354 31.46237183 C7.98036424 31.49394837 10.36649485 31.518729 12.75268555 31.54345703 C14.40750139 31.56402988 16.06231201 31.58502644 17.71711731 31.60643005 C22.07196833 31.66161654 26.42686651 31.71104091 30.78179932 31.75927734 C35.22591345 31.80951736 39.66995912 31.86519038 44.11401367 31.92041016 C52.8333584 32.02794988 61.5527613 32.12890207 70.2722168 32.22705078 C70.2722168 37.50705078 70.2722168 42.78705078 70.2722168 48.22705078 C60.24045993 48.3175901 50.20897654 48.3909039 40.17690277 48.43429947 C35.51808941 48.45513215 30.85957124 48.48337039 26.20092773 48.52880859 C21.70106626 48.57242108 17.20148787 48.59622035 12.70143127 48.60655975 C10.98868863 48.61392357 9.27596065 48.62830334 7.56333923 48.64997101 C-10.35457236 48.86755106 -10.35457236 48.86755106 -18.4777832 41.85205078 C-24.32872729 35.02594935 -26.1820352 30.03802566 -26.0637207 21.17626953 C-25.39566914 15.31139822 -23.02261193 10.46173279 -18.7902832 6.34033203 C-12.7701078 1.63136907 -7.65808885 -0.077407 0 0 Z " fill="#5C9BEB" transform="translate(217.727783203125,379.77294921875)"/>
<path d="M0 0 C13.2 0 26.4 0 40 0 C40 10.56 40 21.12 40 32 C26.8 32 13.6 32 0 32 C0 21.44 0 10.88 0 0 Z " fill="#4A89DC" transform="translate(312,444)"/>
<path d="M0 0 C0.73224792 -0.00073013 1.46449585 -0.00146027 2.21893311 -0.00221252 C4.62743488 0.00125737 7.03397691 0.04008567 9.44213867 0.0793457 C11.11650028 0.08867607 12.79087558 0.09579113 14.46525574 0.1007843 C18.86325038 0.11983679 23.26041386 0.16892173 27.65808105 0.2243042 C32.14913693 0.2755349 36.64032767 0.29830645 41.1315918 0.32348633 C49.93735349 0.37704315 58.74228117 0.46496396 67.54760742 0.56762695 C67.54760742 5.84762695 67.54760742 11.12762695 67.54760742 16.56762695 C57.96829232 16.61280584 48.38904794 16.64950165 38.80965042 16.6712513 C34.36158542 16.68168986 29.91359706 16.6958504 25.46557617 16.71850586 C21.17323808 16.74023162 16.88097373 16.75219503 12.5885849 16.75738144 C10.9507201 16.76107767 9.31285935 16.76829544 7.67502594 16.77908707 C5.3814877 16.7935985 3.08825447 16.79560505 0.79467773 16.79467773 C-0.51104187 16.79911896 -1.81676147 16.80356018 -3.16204834 16.80813599 C-6.26890108 16.58103934 -7.93209774 16.33615726 -10.45239258 14.56762695 C-12.79788932 11.04938184 -13.03230661 9.70987001 -12.45239258 5.56762695 C-8.75451503 0.79662674 -5.8134067 -0.15293366 0 0 Z " fill="#4A89DC" transform="translate(220.452392578125,395.432373046875)"/>
</svg>
